<svg xmlns="http://www.w3.org/2000/svg" viewBox="0 0 82.2 82.2"><defs><style>.cls-1{fill:#58595b;}</style></defs><g id="icons"><path class="cls-1" d="M72.4,31.21H51.87a1.34,1.34,0,1,0,0,2.68H72.4a1.34,1.34,0,0,0,0-2.68Z"/><path class="cls-1" d="M72.4,38.39H51.87a1.34,1.34,0,1,0,0,2.68H72.4a1.34,1.34,0,0,0,0-2.68Z"/><path class="cls-1" d="M73.74,46.9a1.35,1.35,0,0,0-1.34-1.34H51.87a1.35,1.35,0,1,0,0,2.69H72.4A1.35,1.35,0,0,0,73.74,46.9Z"/><path class="cls-1" d="M51.87,52.74a1.34,1.34,0,1,0,0,2.68H62.13a1.34,1.34,0,0,0,0-2.68Z"/><path class="cls-1" d="M79.69,14.34,67.42,2.07A6.07,6.07,0,0,0,63.15.3H22.76a6,6,0,0,0-6.05,6V18.53a1.35,1.35,0,0,0,2.69,0V6.34A3.36,3.36,0,0,1,22.76,3H63.15a3.05,3.05,0,0,1,.6.06V13.76A4.26,4.26,0,0,0,68,18H78.72a3.08,3.08,0,0,1,.06.61V75.84a3.37,3.37,0,0,1-3.36,3.36H59.7a5.52,5.52,0,0,0-.83-6.73L48,61.65a2.93,2.93,0,0,0-3-.71l-2.18-2.17A23.25,23.25,0,0,0,24,22.07H23.9A23.25,23.25,0,1,0,37.37,64.28l2.18,2.17a2.92,2.92,0,0,0,.7,3L50,79.2H22.76a3.36,3.36,0,0,1-3.36-3.36V72a1.35,1.35,0,0,0-2.69,0v3.82a6,6,0,0,0,6.05,6H75.42a6,6,0,0,0,6-6V18.62A6.07,6.07,0,0,0,79.69,14.34Zm-2.81,1H68a1.58,1.58,0,0,1-1.58-1.57V4.88ZM41.2,60.88l1.74,1.74-1.72,1.71-1.74-1.74C40.08,62.05,40.65,61.47,41.2,60.88Zm-1.14-2.82a21.38,21.38,0,0,1-3.39,3.4A20.57,20.57,0,1,1,23.9,24.75H24a20.55,20.55,0,0,1,16.07,33.3ZM57,78.37a2.81,2.81,0,0,1-4,0L42.15,67.54a.25.25,0,0,1,0-.32h.08v-.09l3.59-3.58a.24.24,0,0,1,.35,0L57,74.37A2.84,2.84,0,0,1,57,78.37Z"/><path class="cls-1" d="M50.5,8H26.88a2.71,2.71,0,0,0-2.71,2.72V15.3A2.71,2.71,0,0,0,26.88,18H50.5a2.72,2.72,0,0,0,2.71-2.71V10.74A2.72,2.72,0,0,0,50.5,8Zm0,2.72V15.3s0,0,0,0H26.88a0,0,0,0,1,0,0V10.74a0,0,0,0,1,0,0H50.5S50.52,10.72,50.52,10.74Z"/><path class="cls-1" d="M23.92,26.82A18.5,18.5,0,0,0,5.63,42.5a1.34,1.34,0,1,0,2.65.41A15.82,15.82,0,0,1,35.1,34.13,15.86,15.86,0,0,1,36,55.56a5.32,5.32,0,0,0-2.55-2.31A23.17,23.17,0,0,0,28.17,52V50.75a7.12,7.12,0,0,0,2.75-4.5,2.45,2.45,0,0,0,.66-.46,2.24,2.24,0,0,0,.65-1.61c0-1.44,0-3.74,0-5.29v-.42a3.06,3.06,0,0,0-2.44-3,3.09,3.09,0,0,0-3-2.37H21a5.53,5.53,0,0,0-5.53,5.52v5.6a2.26,2.26,0,0,0,1.3,2,7.15,7.15,0,0,0,2.63,4.4v1.43a22.51,22.51,0,0,0-5.23,1.25,5.16,5.16,0,0,0-2.39,2.18A15.8,15.8,0,0,1,8.34,48a1.34,1.34,0,0,0-2.65.46A18.5,18.5,0,0,0,23.91,63.81h0a18.5,18.5,0,0,0,0-37Zm5.62,12.12-1.27-.12a6.77,6.77,0,0,0-4.15,1,4.1,4.1,0,0,1-2.13.6H18.2V38.61A2.84,2.84,0,0,1,21,35.77h5.74a.38.38,0,0,1,.39.39,1.93,1.93,0,0,0,1.93,1.92h0a.39.39,0,0,1,.39.39ZM18.2,43.07H22a6.75,6.75,0,0,0,3.53-1,4.14,4.14,0,0,1,2.5-.58l1.52.15v0c0,.67,0,1.47,0,2.14a1.61,1.61,0,0,0-1.22,1.48,4.47,4.47,0,0,1-8.93,0,1.63,1.63,0,0,0-1.2-1.48ZM22.13,52a7.07,7.07,0,0,0,3.36,0v.47a2.25,2.25,0,0,0,.16.81,3.5,3.5,0,0,1-3.67,0,2.28,2.28,0,0,0,.15-.81Zm-6.82,3.81a18.47,18.47,0,0,1,4.22-1,6.2,6.2,0,0,0,8.58,0,18,18,0,0,1,4.23,1,2.58,2.58,0,0,1,1.54,1.89,15.82,15.82,0,0,1-20-.06A2.55,2.55,0,0,1,15.31,55.78Z"/></g></svg>