<svg xmlns="http://www.w3.org/2000/svg" viewBox="0 0 82.2 82.2"><defs><style>.cls-1{fill:#58595b;}</style></defs><g id="icons"><path class="cls-1" d="M27.15,62.37a1.38,1.38,0,0,0-.08-.29,1.17,1.17,0,0,0-.15-.27,1.33,1.33,0,0,0-.43-.43,1.17,1.17,0,0,0-.27-.15,1.4,1.4,0,0,0-.29-.09,1.57,1.57,0,0,0-.61,0,1.4,1.4,0,0,0-.29.09,1.17,1.17,0,0,0-.27.15,1.33,1.33,0,0,0-.43.43,1.17,1.17,0,0,0-.15.27,1.4,1.4,0,0,0-.09.29,1.53,1.53,0,0,0,0,.3,1.55,1.55,0,0,0,0,.31,1.4,1.4,0,0,0,.09.29,1.17,1.17,0,0,0,.15.27,1.33,1.33,0,0,0,.43.43,1.17,1.17,0,0,0,.27.15,1.38,1.38,0,0,0,.29.08,1.18,1.18,0,0,0,.61,0,1.38,1.38,0,0,0,.29-.08,1.17,1.17,0,0,0,.27-.15,1.33,1.33,0,0,0,.43-.43,1.17,1.17,0,0,0,.15-.27,1.38,1.38,0,0,0,.08-.29,1.06,1.06,0,0,0,0-.31A1,1,0,0,0,27.15,62.37Z"/><path class="cls-1" d="M72.06,62.85l0-.05c-1.44-3.36-4.81-4.6-8.8-3.24l-10.88,3a7.12,7.12,0,0,0-4.42-4.35l0,0-12-4.06A12.34,12.34,0,0,0,26,49.56c-4.08,0-7.69,2.8-9.76,5.85H1.76A1.56,1.56,0,0,0,.2,57V76.67a1.56,1.56,0,0,0,1.56,1.56h9.29a1.56,1.56,0,0,0,1.56-1.56V75.32H17a1.56,1.56,0,0,0,1.56-1.56v-.45c2.54.22,3.37.7,5.71,2a94,94,0,0,0,9.38,4.79l.07,0a14,14,0,0,0,5,.95A12.38,12.38,0,0,0,43.89,80L68,71.41l.12-.06C70.37,70.3,73.8,67.31,72.06,62.85ZM9.49,75.11H3.32V58.54H9.49Zm5.92-2.91h-2.8V58.54h2.8Zm51.42-3.71-24,8.61-.07,0-.06,0a10.09,10.09,0,0,1-7.78.13,89.93,89.93,0,0,1-9.07-4.63c-2.56-1.47-3.79-2.18-7.27-2.47V57.6C20,55.17,22.88,52.69,26,52.69a9,9,0,0,1,7.65,3.59,1.57,1.57,0,0,0,.82.66l12.42,4.21c2,.75,3,2.45,2.55,4.14A3,3,0,0,1,48,67.12a3,3,0,0,1-2.29.27L31.68,63a1.56,1.56,0,1,0-.94,3l14,4.45h0a6.16,6.16,0,0,0,7.62-4.25c0-.12.07-.25.1-.38l11.73-3.24c1.69-.58,3.92-.79,4.91,1.49C70.18,66.69,67.52,68.16,66.83,68.49Z"/><path class="cls-1" d="M56.29,21.7a1.71,1.71,0,0,0-.09-.3c0-.09-.09-.18-.14-.27a2.2,2.2,0,0,0-.2-.23,1.43,1.43,0,0,0-.23-.2l-.27-.14-.3-.09a1.57,1.57,0,0,0-.61,0,1.61,1.61,0,0,0-.29.09l-.27.14a1.65,1.65,0,0,0-.43.43,1.74,1.74,0,0,0-.14.27,1.71,1.71,0,0,0-.09.3,1.53,1.53,0,0,0,0,.3,1.51,1.51,0,0,0,.12.6,1.74,1.74,0,0,0,.14.27l.19.24.24.19a1.74,1.74,0,0,0,.27.14,1.51,1.51,0,0,0,.6.12,1.53,1.53,0,0,0,.3,0l.3-.09a1.74,1.74,0,0,0,.27-.14,2.11,2.11,0,0,0,.23-.19l.2-.24c0-.09.1-.18.14-.27a1.51,1.51,0,0,0,.12-.6A1.53,1.53,0,0,0,56.29,21.7Z"/><path class="cls-1" d="M78.62,6.44H69.33A1.56,1.56,0,0,0,67.77,8V9.35H63.41a1.56,1.56,0,0,0-1.56,1.56v.45c-2.54-.22-3.37-.7-5.7-2a95.1,95.1,0,0,0-9.39-4.8l-.07,0a13.24,13.24,0,0,0-10.2.16L30.21,6.91l-5.3-5.3a1.56,1.56,0,0,0-2.21,0L5.3,19a1.55,1.55,0,0,0,0,2.21L35,50.94a1.68,1.68,0,0,0,2.21,0L53.12,35.06c.41,0,.84,0,1.28,0,4.09,0,7.7-2.8,9.76-5.85H78.62a1.56,1.56,0,0,0,1.56-1.56V8A1.56,1.56,0,0,0,78.62,6.44ZM23.8,4.92l3.56,3.56a6.78,6.78,0,0,1-7.12,0ZM12.18,23.67,8.62,20.11l3.56-3.56a6.84,6.84,0,0,1,0,7.12Zm24,24-3.56-3.56a6.76,6.76,0,0,1,7.12,0Zm5.81-5.81a9.91,9.91,0,0,0-11.62,0L14.43,25.92a10,10,0,0,0,0-11.62L18,10.73a9.92,9.92,0,0,0,11.62,0L33,14.11a6.22,6.22,0,0,0-4.65,3.41,8.9,8.9,0,1,0,10.24,11l5.28,1.79a10,10,0,0,0,1.65,7.92Zm-9.5-15.36h.05l3.12,1.06a5.79,5.79,0,0,1-9.73,2.83,5.79,5.79,0,0,1,1.88-9.43A6.93,6.93,0,0,0,32.44,26.46ZM47.76,36a7,7,0,0,1-1-3.25,12.29,12.29,0,0,0,2.76,1.49Zm14.09-8.92C60.37,29.5,57.5,32,54.4,32a10.49,10.49,0,0,1-1.63-.12h0A8.94,8.94,0,0,1,47,28.71l-.19-.26a1.56,1.56,0,0,0-.86-.71L33.51,23.52c-2-.74-3-2.44-2.55-4.13h0a3.06,3.06,0,0,1,3.74-2.1l14,4.44a1.56,1.56,0,0,0,.94-3L38.51,15.21l-.1-.09h0L32.65,9.35l5-1.77.06,0h0l.07,0a10.07,10.07,0,0,1,7.77-.13A90.43,90.43,0,0,1,54.59,12c2.55,1.48,3.78,2.19,7.26,2.47Zm5.92-.94H65V12.48h2.79Zm9.29,0H70.89V9.57h6.17Z"/></g></svg>