<svg xmlns="http://www.w3.org/2000/svg" viewBox="0 0 82.2 82.2"><defs><style>.cls-1{font-size:10.36px;fill:#808285;font-family:BoomerCond-Light, BoomerCond;font-weight:300;}.cls-2{letter-spacing:-0.01em;}.cls-3{letter-spacing:-0.01em;}.cls-4{fill:#58595b;}</style></defs><g id="text"><text class="cls-1" transform="translate(0.3 -79.86)"><tspan xml:space="preserve"> 2018-2019 Number </tspan><tspan class="cls-2" x="11.52" y="12.43">o</tspan><tspan x="16.74" y="12.43">f hou</tspan><tspan class="cls-3" x="38.09" y="12.43">s</tspan><tspan x="42.36" y="12.43">eho</tspan><tspan class="cls-2" x="57.96" y="12.43">l</tspan><tspan x="59.99" y="12.43">ds</tspan></text></g><g id="icons"><path class="cls-4" d="M46.22,39.9A14.56,14.56,0,1,0,31.67,54.45,14.57,14.57,0,0,0,46.22,39.9Zm-26,0A11.44,11.44,0,1,1,31.67,51.33,11.44,11.44,0,0,1,20.23,39.9Z"/><path class="cls-4" d="M32.4,47.4l3.39-6.81a.61.61,0,0,0,.05-.12,1.58,1.58,0,0,0-1.45-2.14H31.46l2.27-4.55a1.56,1.56,0,0,0-2.8-1.39L27.54,39.2a1.58,1.58,0,0,0,1.4,2.26h2.93L29.61,46a1.57,1.57,0,0,0,.7,2.1,1.56,1.56,0,0,0,2.09-.71Z"/><path class="cls-4" d="M79.06,42.26H77.24V34a1.57,1.57,0,0,0-3.13,0v8.25H67.87V34a1.57,1.57,0,0,0-3.13,0v8.25H62.92a2.41,2.41,0,0,0-2.41,2.41v5.15a2.43,2.43,0,0,0,2.16,2.41v4.06a7.19,7.19,0,0,0,6.76,7.17v9.32a5.64,5.64,0,0,1-5.63,5.63H38.27c-3.31,0-5-2.84-5-5.63V68.45H53.65a4.93,4.93,0,0,0,.09-9.85V34.72a4.93,4.93,0,0,0,5-8.16l-1-1V8.13a3.88,3.88,0,0,0-3.88-3.88H50.25a3.88,3.88,0,0,0-3.88,3.88v6L35.15,3a4.94,4.94,0,0,0-7,0L3,28.19A4.93,4.93,0,0,0,6.43,36.6h0a4.89,4.89,0,0,0,3.16-1.15V58.6a4.93,4.93,0,0,0,.09,9.85H30.1v4.33c0,5,3.51,8.75,8.17,8.75H63.8a8.76,8.76,0,0,0,8.75-8.75V63.46a7.19,7.19,0,0,0,6.76-7.17V52.23a2.42,2.42,0,0,0,2.16-2.4V44.67A2.41,2.41,0,0,0,79.06,42.26ZM49.5,8.13a.76.76,0,0,1,.75-.76h3.62a.77.77,0,0,1,.76.76v14.3L49.5,17.3V8.13ZM7.7,33a1.82,1.82,0,0,1-1.27.52A1.8,1.8,0,0,1,5.16,30.4L30.39,5.16a1.8,1.8,0,0,1,2.55,0L56.55,28.77a1.82,1.82,0,0,1,0,2.55,1.81,1.81,0,0,1-2.55,0L32.77,10.08a1.58,1.58,0,0,0-2.21,0Zm.18,30.58a1.81,1.81,0,0,1,1.8-1.8h15a1.57,1.57,0,0,0,0-3.13H12.71V32.35l19-19,18.95,19V58.6H38.68a1.57,1.57,0,0,0,0,3.13h15a1.8,1.8,0,1,1,0,3.6h-44a1.81,1.81,0,0,1-1.8-1.8ZM63.64,45.38H78.35v3.73H63.64ZM76.18,56.29a4.05,4.05,0,0,1-4.05,4.06H69.85a4.06,4.06,0,0,1-4-4.06v-4H76.19v4Z"/><path class="cls-4" d="M31.67,61.73a1.57,1.57,0,1,0-1.57-1.56,1.56,1.56,0,0,0,1.57,1.56Z"/></g></svg>