<svg xmlns="http://www.w3.org/2000/svg" viewBox="0 0 82.2 82.2"><defs><style>.cls-1{fill:#58595b;}</style></defs><g id="icons"><path class="cls-1" d="M80.31,35.12l-13.4-17.4a1.55,1.55,0,0,0-2.08-.37l-8.66,5.5H44.89a1.61,1.61,0,0,0-.43.07l-8.75,2.52L26.63,23l-8.82-5.61a1.57,1.57,0,0,0-2.06.34L.93,36.05a1.56,1.56,0,0,0,.2,2.17l7.76,6.69,7,9.39A5.55,5.55,0,0,0,16,62a5.48,5.48,0,0,0,3.36,1.59,6,6,0,0,0-.06.85A5.55,5.55,0,0,0,24.83,70h.06v.11a5.55,5.55,0,0,0,5.55,5.55,6.11,6.11,0,0,0,.86-.07A5.56,5.56,0,0,0,40.75,79l.84-.85.36.28a5.54,5.54,0,0,0,9.4-4.07A5.53,5.53,0,0,0,57,68.71a5.53,5.53,0,0,0,5.63-5.63,5.55,5.55,0,0,0,4.74-8.57l5.09-10.66,7.65-6.58A1.57,1.57,0,0,0,80.31,35.12Zm-63-14.37,6.34,4L9.86,41.59,4.33,36.84Zm.9,35.64,1.91-1.91.18-.17a2.52,2.52,0,0,1,1.31-.53h.25a2.38,2.38,0,0,1,1.71.76,2.46,2.46,0,0,1-.1,3.41L21.61,59.8a2.41,2.41,0,0,1-3.4-3.41Zm4.92,9.77a2.39,2.39,0,0,1,0-3.4L26.84,59a2.44,2.44,0,0,1,2.74-.47,2.42,2.42,0,0,1,1.33,2.49,2.6,2.6,0,0,1-.72,1.45l-3.65,3.65a2.4,2.4,0,0,1-3.41,0Zm5.61,5.66a2.39,2.39,0,0,1,0-3.4l3.71-3.72a2.39,2.39,0,0,1,4.06,2.06,2.55,2.55,0,0,1-.72,1.41l-3.65,3.65a2.39,2.39,0,0,1-3.4,0Zm6.38,4.94a2.41,2.41,0,0,1,0-3.41L37,71.44l.18-.17h0a2.51,2.51,0,0,1,1.07-.5h0l.21,0h.25a2.42,2.42,0,0,1,1.72.76,1.43,1.43,0,0,1,.15.18,2.48,2.48,0,0,1-.27,3.24l-1.85,1.85A2.41,2.41,0,0,1,35.12,76.76ZM64.4,59.24a2.4,2.4,0,0,1-3.4,0l-.11-.1L50.8,48.94a1.57,1.57,0,0,0-2.23,2.21l10.2,10.31h0a2.41,2.41,0,0,1-3.4,3.41L48.54,58a1.57,1.57,0,0,0-2.23,2.21L53,67l.11.12a2.41,2.41,0,1,1-3.41,3.41L46,66.73a1.57,1.57,0,0,0-2.23,2.21L47.4,72.6a.63.63,0,0,0,.11.12,2.41,2.41,0,0,1-3.41,3.41,2.39,2.39,0,0,0-.35-.28c-.1-.08-.13-.14-.08-.26s.13-.24.18-.37a3.66,3.66,0,0,0,.15-.43,5.66,5.66,0,0,0,.2-2.42,5.46,5.46,0,0,0-4.68-4.72,5.6,5.6,0,0,0-1.34-5.06,5.52,5.52,0,0,0-4-1.73h-.17a5.49,5.49,0,0,0-5.44-5.66,5.5,5.5,0,0,0-1.34.14,5.49,5.49,0,0,0-5.38-4.71,5.53,5.53,0,0,0-3.79,1.43L12,43.88,26.56,26.19l4.62,1.27-6,10.66a5.54,5.54,0,0,0,2.09,7.56l.25.14h0a4.21,4.21,0,0,0,.66.28,5.43,5.43,0,0,0,3.29.1,5.49,5.49,0,0,0,3.35-2.61l3.92-6.93,7,.5L64.4,55.83A2.41,2.41,0,0,1,64.4,59.24Zm.65-7.2L47.54,34.53l-.1-.1a1.59,1.59,0,0,0-.9-.36L38,33.46a1.6,1.6,0,0,0-1.48.79l-4.42,7.8a2.4,2.4,0,0,1-3.28.9,2.35,2.35,0,0,1-1.13-1.45,2.43,2.43,0,0,1,.22-1.83l5.9-10.4,2.39-.69h0L45.12,26H55.89L69.33,43.08Zm6.34-11.42L59,24.81l6.35-4L76.92,35.86Z"/><path class="cls-1" d="M49.08,19.91a1.58,1.58,0,0,0,1.11-.46L60.91,8.72a1.56,1.56,0,0,0,0-2.22,1.58,1.58,0,0,0-2.22,0L48,17.22a1.58,1.58,0,0,0,1.11,2.69Z"/><path class="cls-1" d="M31,19.45a1.57,1.57,0,0,0,1.11.46,1.58,1.58,0,0,0,1.11-2.69L22.52,6.5A1.57,1.57,0,1,0,20.3,8.72Z"/><path class="cls-1" d="M40.61,19.91a1.57,1.57,0,0,0,1.57-1.57V9.46a1.57,1.57,0,1,0-3.14,0v8.88A1.57,1.57,0,0,0,40.61,19.91Z"/><path class="cls-1" d="M39.16,3.77a1.57,1.57,0,1,0,2.4-1.84,1.57,1.57,0,0,0-2.4,1.84Z"/></g></svg>