<svg xmlns="http://www.w3.org/2000/svg" viewBox="0 0 82.2 82.2"><defs><style>.cls-1{font-size:10.36px;fill:#808285;font-family:BoomerCond-Light, BoomerCond;font-weight:300;}.cls-2{letter-spacing:-0.11em;}.cls-3{letter-spacing:-0.01em;}.cls-4{letter-spacing:-0.03em;}.cls-5{letter-spacing:-0.04em;}.cls-6{letter-spacing:0em;}.cls-7{letter-spacing:-0.01em;}.cls-8{letter-spacing:-0.01em;}.cls-9{letter-spacing:-0.02em;}.cls-10{fill:#58595b;}</style></defs><g id="text"><text class="cls-1" transform="translate(-4.61 -79.86)"><tspan class="cls-2">T</tspan><tspan class="cls-3" x="4.38" y="0">o</tspan><tspan x="9.6" y="0">tal Di</tspan><tspan class="cls-4" x="31" y="0">r</tspan><tspan x="34.04" y="0">e</tspan><tspan class="cls-3" x="39.03" y="0">c</tspan><tspan x="43.77" y="0">t Ope</tspan><tspan class="cls-5" x="66.86" y="0">r</tspan><tspan x="69.8" y="0">ating </tspan><tspan class="cls-3" x="1.48" y="12.43">E</tspan><tspan x="6.52" y="12.43">xpenditu</tspan><tspan class="cls-4" x="43.82" y="12.43">r</tspan><tspan class="cls-6" x="46.87" y="12.43">e </tspan><tspan class="cls-7" x="53.88" y="12.43">(w</tspan><tspan x="64.96" y="12.43">e m</tspan><tspan class="cls-8" x="80.34" y="12.43">a</tspan><tspan x="85.31" y="12.43">y </tspan><tspan class="cls-4" x="0.32" y="24.86">r</tspan><tspan x="3.37" y="24.86">ep</tspan><tspan class="cls-7" x="13.86" y="24.86">l</tspan><tspan x="15.89" y="24.86">a</tspan><tspan class="cls-8" x="21.02" y="24.86">c</tspan><tspan x="25.71" y="24.86">e this with </tspan><tspan class="cls-3" x="70.99" y="24.86">to</tspan><tspan x="79.89" y="24.86">tal </tspan><tspan x="15.21" y="37.3">in</tspan><tspan class="cls-8" x="22.64" y="37.3">c</tspan><tspan x="27.33" y="37.3">ome </tspan><tspan class="cls-9" x="48.04" y="37.3">f</tspan><tspan x="51.28" y="37.3">or the </tspan><tspan x="20.13" y="49.73">munici</tspan><tspan class="cls-3" x="48.17" y="49.73">p</tspan><tspan x="53.58" y="49.73">ali</tspan><tspan class="cls-3" x="62.98" y="49.73">t</tspan><tspan x="66.67" y="49.73">y</tspan></text></g><g id="icons"><path class="cls-10" d="M77.44,70.57V70.4A5.36,5.36,0,0,0,72.08,65V40.24l4.82-3.62a1.35,1.35,0,0,0,.27-1.88,1.2,1.2,0,0,0-.28-.27L65.37,26.05V11.42a1.34,1.34,0,0,0,1.34-1.34V4.72a1.34,1.34,0,0,0-1.34-1.34H52a1.34,1.34,0,0,0-1.34,1.34v5.36A1.34,1.34,0,0,0,52,11.42v4.84L42,9a1.34,1.34,0,0,0-1.59,0L5.6,34.47a1.33,1.33,0,0,0-.29,1.87,1.24,1.24,0,0,0,.28.28l4.82,3.62V65A5.36,5.36,0,0,0,5.05,70.4v.17A5.37,5.37,0,0,0,6.39,81.13H76.1a5.37,5.37,0,0,0,1.34-10.56Zm-67,7.87h-4a2.68,2.68,0,0,1,0-5.36h0l.21,0A1.34,1.34,0,0,0,8,71.85a1.24,1.24,0,0,0-.07-.54,2.59,2.59,0,0,1-.18-.91,2.68,2.68,0,0,1,2.68-2.68ZM53.31,6.06H64V8.74H53.31Zm9.38,5.36V24.09l-8.17-6h.13v-6.7ZM29.63,50.93h4.64a5.81,5.81,0,0,1,5.81,5.81v5.8a1.16,1.16,0,1,1-2.32,0v-5.8a1.16,1.16,0,1,0-2.32,0v4.64h-7V56.74a1.17,1.17,0,1,0-2.33,0v5.8a1.16,1.16,0,1,1-2.32,0v-5.8A5.81,5.81,0,0,1,29.63,50.93Zm-1.16-5.81A3.49,3.49,0,1,1,32,48.6,3.48,3.48,0,0,1,28.47,45.12ZM32,66a1.16,1.16,0,0,0-1.16,1.16v8.13a1.16,1.16,0,1,1-2.32,0V63.71h7V75.32a1.17,1.17,0,0,1-2.33,0V67.19A1.16,1.16,0,0,0,32,66ZM32,77.9a3.31,3.31,0,0,0,.8.54h-1.6A3.31,3.31,0,0,0,32,77.9Zm3.87.54a3.44,3.44,0,0,0,1.94-3.12v-9.5a3.39,3.39,0,0,0,3.48-.7A3.4,3.4,0,0,0,43.5,66L43,67.63a2.31,2.31,0,0,0,1.76,3v4.7a3.49,3.49,0,0,0,2,3.12H35.82ZM48.21,50.93h4.65a5.81,5.81,0,0,1,5.81,5.81v5.8a1.16,1.16,0,0,1-1.16,1.17,1.11,1.11,0,0,1-.81-.34,7.69,7.69,0,0,1-.35-2.28V56.74a3.49,3.49,0,0,0-3.49-3.49H48.21a3.48,3.48,0,0,0-3.48,3.49v4.37a7.54,7.54,0,0,1-.33,2.21,1.16,1.16,0,0,1-.82.37,1.18,1.18,0,0,1-.84-.34,1.06,1.06,0,0,1-.33-.81v-5.8A5.81,5.81,0,0,1,48.21,50.93Zm-1.16-5.81a3.49,3.49,0,1,1,3.49,3.48A3.49,3.49,0,0,1,47.05,45.12Zm0,30.2V70.68h2.33v4.64a1.16,1.16,0,0,1-1.17,1.16,1.18,1.18,0,0,1-1.16-1.16Zm7,0a1.16,1.16,0,0,1-1.16,1.16,1.16,1.16,0,0,1-1.16-1.16V70.68H54Zm-8.84-7,1.32-4s0-.08,0-.11a10,10,0,0,0,.51-3.17V56.74a1.16,1.16,0,0,1,1.16-1.17h4.65A1.16,1.16,0,0,1,54,56.74v4.35a9.94,9.94,0,0,0,.53,3.2l1.35,4.06Zm6.18,10.09H49.71a3.2,3.2,0,0,0,.83-.54A3,3,0,0,0,51.36,78.44Zm18,0h-15a3.46,3.46,0,0,0,2-3.12v-4.7a2.29,2.29,0,0,0,1.56-1.1,2.34,2.34,0,0,0,.19-1.9L57.57,66A3.49,3.49,0,0,0,61,62.54v-5.8a8.13,8.13,0,0,0-6.06-7.86,5.81,5.81,0,1,0-8.78,0,8.19,8.19,0,0,0-4.91,3.69,8.14,8.14,0,0,0-4.9-3.69,5.81,5.81,0,1,0-8.78,0,8.13,8.13,0,0,0-6.06,7.86v5.8a3.45,3.45,0,0,0,4.64,3.28v9.5a3.48,3.48,0,0,0,1.94,3.12h-15V40.25L41.24,19.78,69.4,40.25ZM42,17a1.34,1.34,0,0,0-1.57,0L11.77,37.9,8.64,35.56l32.6-23.82L73.85,35.56,70.72,37.9ZM76.1,78.45h-4V67.72a2.68,2.68,0,0,1,2.68,2.68,2.83,2.83,0,0,1-.18.91A1.34,1.34,0,0,0,75.39,73a1.39,1.39,0,0,0,.54.08l.21,0h0a2.69,2.69,0,0,1,0,5.37Z"/></g></svg>