<svg xmlns="http://www.w3.org/2000/svg" viewBox="0 0 82.2 82.2"><defs><style>.cls-1{fill:#58595b;}</style></defs><g id="icons"><path class="cls-1" d="M80.78,68.5a1.37,1.37,0,0,0-.83-.6,1.34,1.34,0,0,0-1,.16,1.38,1.38,0,0,0-.6.82,1.37,1.37,0,0,0,.16,1,8.65,8.65,0,0,1,1.26,4.49v3.17a1.53,1.53,0,0,1-1.53,1.53h-1.8v-3.6a1.34,1.34,0,0,0-2.67,0v3.6H61.82v-3.6a1.34,1.34,0,0,0-2.67,0v3.6H57.36a1.52,1.52,0,0,1-1.53-1.53V74.38a8.63,8.63,0,0,1,8.61-8.62h6.7a8.39,8.39,0,0,1,3.73.85,1.39,1.39,0,0,0,1,.06,1.36,1.36,0,0,0,.77-.68A1.34,1.34,0,0,0,76,64.21a10.41,10.41,0,0,0-2.23-.8,8.54,8.54,0,1,0-12,0c-.31.08-.63.17-.95.28L52.5,58.87c.14-.32.27-.65.38-1a3.34,3.34,0,0,0,3-3.31V53.1a3.35,3.35,0,0,0-3-3.32,11.45,11.45,0,0,0-.58-1.4,3.33,3.33,0,0,0-.23-4.45l-1-1a3.36,3.36,0,0,0-4.46-.23,12.15,12.15,0,0,0-1.4-.58,3.38,3.38,0,0,0-2.72-2.94v-4h9.1a4.2,4.2,0,0,0,4.2-4.2V27.74a11.36,11.36,0,0,0-8.63-11,8.54,8.54,0,1,0-12,0,11,11,0,0,0-2.52.93,1.37,1.37,0,0,0-.66.78,1.34,1.34,0,0,0,1.89,1.59,8.53,8.53,0,0,1,4-.95h6.69a8.63,8.63,0,0,1,8.62,8.62v3.17a1.54,1.54,0,0,1-1.53,1.53h-1.8v-3.6a1.33,1.33,0,1,0-2.66,0v3.6h-12v-3.6a1.33,1.33,0,1,0-2.66,0v3.6h-1.8a1.54,1.54,0,0,1-1.53-1.53V27.74a8.6,8.6,0,0,1,1.13-4.27,1.34,1.34,0,0,0-.5-1.82,1.32,1.32,0,0,0-1-.13,1.35,1.35,0,0,0-.81.63,11.23,11.23,0,0,0-1.48,5.59v3.17a4.21,4.21,0,0,0,4.2,4.2h9.1v4a3.39,3.39,0,0,0-2.72,2.94,11.19,11.19,0,0,0-1.4.58,3.34,3.34,0,0,0-4.46.23l-1.05,1a3.34,3.34,0,0,0-.22,4.46,13,13,0,0,0-.59,1.4,3.26,3.26,0,0,0-3,3.26v1.59a3.26,3.26,0,0,0,3,3.26c.12.33.25.66.39,1l-8.39,4.85c-.35-.12-.7-.22-1.05-.31a8.53,8.53,0,1,0-12,0,11.35,11.35,0,0,0-8.63,11v3.17a4.2,4.2,0,0,0,4.19,4.2H24.73a4.2,4.2,0,0,0,4.19-4.2V74.38a11.29,11.29,0,0,0-4.77-9.21l5.13-3a3.43,3.43,0,0,0,.87,1.54l1.05,1a3.36,3.36,0,0,0,4.46.23,13.28,13.28,0,0,0,1.4.58,3.34,3.34,0,0,0,3.31,3h1.49a3.36,3.36,0,0,0,3.31-3,14.23,14.23,0,0,0,1.4-.58A3.36,3.36,0,0,0,51,64.8l1-1A3.36,3.36,0,0,0,53,62.21l5,2.91a11.29,11.29,0,0,0-4.83,9.26v3.17a4.2,4.2,0,0,0,4.2,4.2H78.23a4.21,4.21,0,0,0,4.2-4.2V74.38A11.28,11.28,0,0,0,80.78,68.5Zm-31-10.16a2.24,2.24,0,0,0,.4,2.59.65.65,0,0,1,0,.93l-1,1a.68.68,0,0,1-.94,0l0,0a2.19,2.19,0,0,0-2.55-.36,9.65,9.65,0,0,1-1.56.64,2.22,2.22,0,0,0-1.54,2.1.67.67,0,0,1-.66.67H40.37c-.5,0-.63-.38-.66-.7v0a2.19,2.19,0,0,0-1.54-2,9.65,9.65,0,0,1-1.56-.64,2.22,2.22,0,0,0-1-.26,2.14,2.14,0,0,0-1.51.61l0,0a.66.66,0,0,1-.94,0l-1.05-1a.67.67,0,0,1-.19-.47.63.63,0,0,1,.19-.46l0,0a2.19,2.19,0,0,0,.37-2.55,8.86,8.86,0,0,1-.65-1.56,2.21,2.21,0,0,0-2.1-1.54.63.63,0,0,1-.67-.61V53a.63.63,0,0,1,.67-.61h0a2.19,2.19,0,0,0,2.06-1.54,9.19,9.19,0,0,1,.65-1.56,2.2,2.2,0,0,0-.37-2.55l0,0a.68.68,0,0,1,0-.94l1.05-1.05a.67.67,0,0,1,.47-.19.68.68,0,0,1,.47.19l0,0a2.19,2.19,0,0,0,2.55.37,9.69,9.69,0,0,1,1.56-.65,2.18,2.18,0,0,0,1.54-2v-.05a.66.66,0,0,1,.66-.66h1.49a.66.66,0,0,1,.66.66v0a2.19,2.19,0,0,0,1.54,2.06,10.08,10.08,0,0,1,1.56.65,2.19,2.19,0,0,0,2.55-.37l0,0a.68.68,0,0,1,.47-.19.67.67,0,0,1,.47.19l1,1.05a.68.68,0,0,1,0,.94l0,0a2.2,2.2,0,0,0-.37,2.55,9.69,9.69,0,0,1,.65,1.56,2.19,2.19,0,0,0,2.06,1.54h0a.67.67,0,0,1,.67.67v1.48a.67.67,0,0,1-.67.66h0a2.19,2.19,0,0,0-2.06,1.54A9.32,9.32,0,0,1,49.79,58.34Zm12.14-1a5.87,5.87,0,1,1,7,5.75H66.68A5.85,5.85,0,0,1,61.93,57.34ZM40,16.45a5.86,5.86,0,1,1,2.25,0ZM8.42,57.34a5.87,5.87,0,1,1,7,5.75H13.18A5.85,5.85,0,0,1,8.42,57.34ZM26.25,77.55a1.52,1.52,0,0,1-1.52,1.53h-1.8v-3.6a1.34,1.34,0,0,0-2.67,0v3.6H8.32v-3.6a1.34,1.34,0,0,0-2.67,0v3.6H3.85a1.53,1.53,0,0,1-1.53-1.53V74.38a8.63,8.63,0,0,1,8.62-8.62h6.7a8.63,8.63,0,0,1,8.61,8.62Z"/><path class="cls-1" d="M41.11,46.68a7.16,7.16,0,1,0,7.16,7.16A7.16,7.16,0,0,0,41.11,46.68Zm4.49,7.16a4.49,4.49,0,1,1-4.49-4.49A4.49,4.49,0,0,1,45.6,53.84Z"/></g></svg>