<svg xmlns="http://www.w3.org/2000/svg" viewBox="0 0 82.2 82.2"><defs><style>.cls-1{fill:#58595b;}</style></defs><g id="icons"><circle class="cls-1" cx="23.71" cy="78.04" r="1.61"/><path class="cls-1" d="M81.1,69.92,65.5,44.61a1.65,1.65,0,0,0-2.27-.53l-.79.48-3.58-5.81A21.43,21.43,0,0,0,32.32,5.5a21.15,21.15,0,0,0-6.08,5.62H1.65A1.65,1.65,0,0,0,0,12.77V78.13a1.64,1.64,0,0,0,1.65,1.64h14.7a1.65,1.65,0,0,0,0-3.29H3.29V14.42h21A21.42,21.42,0,0,0,43.6,45.16c.61,0,1.23,0,1.84-.08v31.4H31.12a1.65,1.65,0,0,0,0,3.29h16a1.64,1.64,0,0,0,1.65-1.64V44.53c.46-.11.91-.24,1.37-.39L53.69,50l-.79.49a1.65,1.65,0,0,0-.54,2.26L68,78a7.42,7.42,0,0,0,10.2,2.42l.51-.32h0a7.42,7.42,0,0,0,2.42-10.2Zm-53-36.66a18.14,18.14,0,1,1,25,5.91,18.17,18.17,0,0,1-25-5.91ZM53.2,42.88c.54-.28,1.08-.58,1.61-.9s1-.68,1.53-1l3.3,5.35L56.5,48.23Zm10.36,4.86L74.81,66l-7.52,4.64L56,52.38ZM77,77.31l-.52.32a4.12,4.12,0,0,1-5.67-1.34L69,73.44l7.53-4.64,1.76,2.85A4.12,4.12,0,0,1,77,77.31Z"/><path class="cls-1" d="M57.65,27.08a14.47,14.47,0,1,0-6.49,9,14.4,14.4,0,0,0,6.49-9Zm-8.22,6.18c-5.25,3.23-13.93,1.25-16-4.78H44.63a1.65,1.65,0,0,0,0-3.3H32.48a11.33,11.33,0,0,1,.06-3.29H44.63a1.65,1.65,0,0,0,0-3.29h-11a11,11,0,0,1,4-4.38,11.18,11.18,0,0,1,11.74,19Z"/><path class="cls-1" d="M8.29,28.4h8.89a1.65,1.65,0,0,0,0-3.3H8.29a1.65,1.65,0,0,0,0,3.3Z"/><path class="cls-1" d="M8.29,35h8.89a1.65,1.65,0,1,0,0-3.29H8.29a1.65,1.65,0,1,0,0,3.29Z"/><path class="cls-1" d="M8.29,41.57H22.4a1.65,1.65,0,0,0,0-3.29H8.29a1.65,1.65,0,1,0,0,3.29Z"/><path class="cls-1" d="M8.29,48.16H31.45a1.65,1.65,0,1,0,0-3.3H8.29a1.65,1.65,0,0,0,0,3.3Z"/><path class="cls-1" d="M8.29,54.74H40.51a1.65,1.65,0,1,0,0-3.29H8.29a1.65,1.65,0,1,0,0,3.29Z"/><path class="cls-1" d="M8.29,61.33H40.51a1.65,1.65,0,1,0,0-3.29H8.29a1.65,1.65,0,1,0,0,3.29Z"/></g></svg>