<svg xmlns="http://www.w3.org/2000/svg" viewBox="0 0 82.2 82.2"><defs><style>.cls-1{fill:#58595b;}</style></defs><g id="icons"><g id="Layer_7" data-name="Layer 7"><path class="cls-1" d="M72.29,47.75H57l1.39-1.39a20.5,20.5,0,0,0,0-29L46.74,5.76a1.32,1.32,0,0,0-1.87,0,1.29,1.29,0,0,0-.39.93v3.4a21.1,21.1,0,0,1-3.27,11.32l-9-9a1.32,1.32,0,0,0-2.26.94v6.26a6.11,6.11,0,0,1-4.48,5.87,13.72,13.72,0,0,0-10.09,13.2,13.54,13.54,0,0,0,3.48,9.1H8.73a1.32,1.32,0,0,0-1.32,1.32V80.85a1.33,1.33,0,0,0,1.32,1.33H72.29a1.33,1.33,0,0,0,1.32-1.33V49.07A1.32,1.32,0,0,0,72.29,47.75ZM21.23,46.46A11,11,0,0,1,26.13,28a8.72,8.72,0,0,0,6.43-8.42V16.52l7.9,7.9a1.33,1.33,0,0,0,1.87,0l.13-.15A23.72,23.72,0,0,0,47.13,10.1V9.9l9.34,9.34a17.86,17.86,0,0,1,0,25.25L53.2,47.75H51a11.1,11.1,0,0,0-.37-15L45,27a1.32,1.32,0,0,0-2.27.93v1.7a10.18,10.18,0,0,1-1.06,4.53l-3.74-3.85a1.32,1.32,0,0,0-2.27.93v3.13A2.39,2.39,0,0,1,34,36.63a7.49,7.49,0,0,0-5.39,7.23,7.6,7.6,0,0,0,1.08,3.89H22.52Zm11.82,1.29-.43-.44a5,5,0,0,1-1.38-3.45,4.85,4.85,0,0,1,3.46-4.69,5,5,0,0,0,3.61-4.71L41,37.2a1.32,1.32,0,0,0,1.87,0,1.22,1.22,0,0,0,.15-.17,12.79,12.79,0,0,0,2.31-6l3.44,3.55a8.47,8.47,0,0,1,0,11.71l-1.39,1.43ZM71,79.53H10.05V50.4H71Z"/><path class="cls-1" d="M14,71.58a4,4,0,0,1,4,4,1.32,1.32,0,0,0,1.32,1.32H61.69A1.32,1.32,0,0,0,63,75.56a4,4,0,0,1,4-4,1.33,1.33,0,0,0,1.33-1.32V59.67A1.33,1.33,0,0,0,67,58.34a4,4,0,0,1-4-4,1.32,1.32,0,0,0-1.33-1.32H19.32A1.32,1.32,0,0,0,18,54.37a4,4,0,0,1-4,4,1.32,1.32,0,0,0-1.33,1.33V70.26A1.32,1.32,0,0,0,14,71.58ZM31.24,65a9.27,9.27,0,1,1,9.27,9.27A9.27,9.27,0,0,1,31.24,65ZM60.5,55.69a6.66,6.66,0,0,0,5.17,5.17v8.21a6.64,6.64,0,0,0-5.17,5.16H48a11.89,11.89,0,0,0,1.83-16.71A12.18,12.18,0,0,0,48,55.69ZM15.35,60.86a6.64,6.64,0,0,0,5.16-5.17H33a11.9,11.9,0,0,0-1.83,16.72A11.67,11.67,0,0,0,33,74.23H20.51a6.61,6.61,0,0,0-5.16-5.16Z"/><path class="cls-1" d="M59.05,68.93a4,4,0,1,0-4-4A4,4,0,0,0,59.05,68.93Zm0-5.29a1.33,1.33,0,0,1,0,2.65,1.33,1.33,0,1,1,0-2.65Z"/><path class="cls-1" d="M22,68.93a4,4,0,1,0-4-4A4,4,0,0,0,22,68.93Zm0-5.29A1.33,1.33,0,1,1,20.65,65,1.32,1.32,0,0,1,22,63.64Z"/><path class="cls-1" d="M21.42,13.32a1.88,1.88,0,0,1,0,2.65l-.77.78a1.32,1.32,0,0,0,0,1.87h0a1.33,1.33,0,0,0,1.87,0l.77-.78a4.51,4.51,0,0,0,0-6.39l-.77-.78a1.88,1.88,0,0,1,0-2.65l.77-.77a1.32,1.32,0,0,0,0-1.87h0a1.32,1.32,0,0,0-1.87,0l-.77.77a4.52,4.52,0,0,0,0,6.4Z"/><path class="cls-1" d="M61.15,10.67a1.88,1.88,0,0,1,0,2.65l-.78.78a1.32,1.32,0,0,0,0,1.87h0a1.32,1.32,0,0,0,1.87,0l.78-.78A4.53,4.53,0,0,0,63,8.8L62.24,8a1.86,1.86,0,0,1,0-2.64L63,4.6a1.32,1.32,0,0,0,0-1.87h0a1.32,1.32,0,0,0-1.87,0l-.78.77a4.54,4.54,0,0,0,0,6.4Z"/><path class="cls-1" d="M38.64,9.35a1.88,1.88,0,0,1,0,2.65l-.78.77a1.33,1.33,0,0,0,0,1.88h0a1.33,1.33,0,0,0,1.87,0l.78-.78a4.53,4.53,0,0,0,0-6.39l-.78-.78a1.88,1.88,0,0,1,0-2.65l.78-.77a1.33,1.33,0,0,0,0-1.88h0a1.33,1.33,0,0,0-1.87,0l-.78.78a4.51,4.51,0,0,0,0,6.39Z"/><path class="cls-1" d="M36.21,60.9a1.2,1.2,0,0,1,1.21-1.2h3.82a4.37,4.37,0,0,1,3.2,1.11,3.46,3.46,0,0,1,.94,2.51v0a3.36,3.36,0,0,1-2.19,3.35l1.68,2a1.44,1.44,0,0,1,.39.93,1.13,1.13,0,0,1-1.15,1.11,1.44,1.44,0,0,1-1.19-.63l-2.36-3H38.63v2.4a1.21,1.21,0,0,1-2.42,0ZM41.08,65c1.18,0,1.86-.62,1.86-1.55v0c0-1-.73-1.57-1.9-1.57H38.63V65Z"/></g></g></svg>