<svg xmlns="http://www.w3.org/2000/svg" viewBox="0 0 82.2 82.2"><defs><style>.cls-1{font-size:10.36px;fill:#808285;font-family:BoomerCond-Light, BoomerCond;font-weight:300;}.cls-2{letter-spacing:-0.01em;}.cls-3{letter-spacing:-0.01em;}.cls-4{letter-spacing:-0.03em;}.cls-5{letter-spacing:-0.02em;}.cls-6{fill:#58595b;}</style></defs><g id="text"><text class="cls-1" transform="translate(6.03 -79.86)">% <tspan class="cls-2" x="11.58" y="0">o</tspan><tspan x="16.8" y="0">f hou</tspan><tspan class="cls-3" x="38.16" y="0">s</tspan><tspan x="42.42" y="0">eho</tspan><tspan class="cls-2" x="58.02" y="0">l</tspan><tspan x="60.06" y="0">ds </tspan><tspan class="cls-4" x="3.42" y="12.43">r</tspan><tspan x="6.46" y="12.43">e</tspan><tspan class="cls-5" x="11.45" y="12.43">c</tspan><tspan x="16.14" y="12.43">eiving </tspan><tspan class="cls-4" x="42.39" y="12.43">w</tspan><tspan x="49.42" y="12.43">a</tspan><tspan class="cls-2" x="54.54" y="12.43">t</tspan><tspan x="58.23" y="12.43">er </tspan></text></g><g id="icons"><path class="cls-6" d="M2.06,80.91H80.14a1.32,1.32,0,0,0,1.36-1.25V74.4a7.3,7.3,0,0,0-7.3-7.23h-3V66a8.67,8.67,0,0,0,1-.86A10.16,10.16,0,0,0,75,58V50.53h.88a1.31,1.31,0,0,0,1.29-1.31A7.26,7.26,0,0,0,70,42H63.86a4.28,4.28,0,0,0-2.42.78,10.08,10.08,0,0,0-2.84,1.72,5.61,5.61,0,0,0-2.09-2.69,5.86,5.86,0,0,0-6.78.18,11.09,11.09,0,0,0-19.94,6.66v6.68a11.36,11.36,0,0,0,3.29,7.92,7.24,7.24,0,0,0,1.56,1.3v1.21H31.05a8.65,8.65,0,0,0-4.5,1.45H22.84V66a8.67,8.67,0,0,0,1-.86A10.16,10.16,0,0,0,26.72,58V50.53h.86a1.32,1.32,0,0,0,1.3-1.31A7.27,7.27,0,0,0,21.64,42H15.53a4.4,4.4,0,0,0-2.46.78,10.11,10.11,0,0,0-6.39,9.32V58a10.24,10.24,0,0,0,3,7.13A9.25,9.25,0,0,0,11,66.26v.91H8A7.3,7.3,0,0,0,.7,74.4v5.26A1.32,1.32,0,0,0,2.06,80.91Zm16.09-8.76L22,69.76h2.21a7.81,7.81,0,0,0-1.16,4v4.58H18.15ZM50.4,78.33H42.23V71.12l4.47-2.81h4.45a5.51,5.51,0,0,1,5.47,5.44v4.58ZM48.69,63.21a11.28,11.28,0,0,0,3.24-7.92V52.1a5.88,5.88,0,0,0,3.19-.18s0,.09,0,.14V58a10.15,10.15,0,0,0,2.91,7.13,8.63,8.63,0,0,0,1.29,1.13v.91H55.65a8.62,8.62,0,0,0-4.5-1.45H47.57V64.21A5.9,5.9,0,0,0,48.69,63.21Zm9.94-14.76a7.3,7.3,0,0,1,1-1.42,4.29,4.29,0,0,0,1.77,2.75,6.87,6.87,0,0,1-3.74,1.69,7.27,7.27,0,0,1,.48-2.06A6,6,0,0,0,58.63,48.45Zm5.26,29.88H59.2V73.75a7.8,7.8,0,0,0-1.15-4h2.17l3.67,2.37Zm15-3.93v3.93H66.47V72.15l3.82-2.39H74.2A4.71,4.71,0,0,1,78.92,74.4ZM68.58,67.75,65.17,69.9,62,67.76v-.14a9.34,9.34,0,0,0,3.14.54,9.5,9.5,0,0,0,3.49-.67ZM72.45,58a7.35,7.35,0,1,1-14.7,0V54.07a9.42,9.42,0,0,0,6.56-3.54h8.14ZM63.86,44.55H70a4.69,4.69,0,0,1,4.46,3.39H63.86a1.7,1.7,0,1,1,0-3.39ZM55,43.9a3.17,3.17,0,0,1,1.21,3.52c-.14.26-.26.53-.38.8l-.07.08a3.16,3.16,0,0,1-3.87,1.1v-.79A11,11,0,0,0,51,44.2,3.3,3.3,0,0,1,55,43.9ZM40.88,40.12a8.51,8.51,0,0,1,8.46,7.71,7.2,7.2,0,0,1-1.56-2.69,1.29,1.29,0,0,0-2.37-.34c-1.67,2.88-4.49,4.51-8.37,4.83a19.14,19.14,0,0,1-4.66-.22v-.8A8.51,8.51,0,0,1,40.88,40.12Zm-8.5,15.17V52a22,22,0,0,0,3.24.25c.5,0,1,0,1.56-.06A13.07,13.07,0,0,0,46.25,48a9.88,9.88,0,0,0,3.09,3.18v4.09a8.73,8.73,0,0,1-2.47,6.12,8.3,8.3,0,0,1-12,0A8.76,8.76,0,0,1,32.38,55.29Zm8.53,11.27A10.36,10.36,0,0,0,45,65.73v.62l-4,2.52-3.77-2.5v-.48A10.13,10.13,0,0,0,40.91,66.56Zm-9.86,1.75h4.42l4.18,2.8v7.22H25.59V73.75A5.5,5.5,0,0,1,31.05,68.31Zm-10.79-.56L16.85,69.9l-3.22-2.14v-.14a9.34,9.34,0,0,0,3.14.54,9.5,9.5,0,0,0,3.49-.67Zm-4.73-23.2h6.11a4.69,4.69,0,0,1,4.47,3.39H15.53a1.7,1.7,0,1,1,0-3.39ZM11.33,47a4.27,4.27,0,0,0,1.78,2.75,6.9,6.9,0,0,1-3.74,1.69A7.45,7.45,0,0,1,11.33,47ZM9.27,58V54.07A9.38,9.38,0,0,0,16,50.53h8.16V58a7.62,7.62,0,0,1-7.43,7.57A7.62,7.62,0,0,1,9.27,58Zm-6,16.4A4.7,4.7,0,0,1,8,69.76h3.88l3.69,2.37v6.2H3.29Z"/><path class="cls-6" d="M7.11,30.72a1.29,1.29,0,0,0-1.83,1.83L10.76,38a1.31,1.31,0,0,0,1,.37,1.26,1.26,0,0,0,1-.51l5.35-5.34a1.29,1.29,0,1,0-1.83-1.83L13,34V22.41a1.29,1.29,0,0,0-2.58,0V34L7.11,30.72Z"/><path class="cls-6" d="M71.45,38l5.47-5.48a1.29,1.29,0,0,0-1.82-1.83L71.81,34V22.41a1.3,1.3,0,0,0-2.59,0V34L66,30.72a1.29,1.29,0,1,0-1.83,1.83l5.34,5.34a1.3,1.3,0,0,0,1.32.49A1.38,1.38,0,0,0,71.45,38Z"/><path class="cls-6" d="M62.92,7.37a4,4,0,0,0-4-4H23.31a4,4,0,0,0-4,4V26.14a4,4,0,0,0,4,4H58.89a4,4,0,0,0,4-4ZM60.33,26.14a1.43,1.43,0,0,1-1.44,1.44H23.31a1.44,1.44,0,0,1-1.44-1.44V7.37a1.44,1.44,0,0,1,1.44-1.44H58.89a1.43,1.43,0,0,1,1.44,1.44Z"/><path class="cls-6" d="M57.14,11.65c-2.2,0-3.61-1.08-3.68-2.69A1.31,1.31,0,0,0,52.18,7.7H30A1.31,1.31,0,0,0,28.74,9c-.08,1.59-1.51,2.65-3.67,2.68A1.29,1.29,0,0,0,23.81,13v7.51a1.27,1.27,0,0,0,1.26,1.29c2.16,0,3.55,1.05,3.63,2.67A1.27,1.27,0,0,0,30,25.64h22.2a1.27,1.27,0,0,0,1.29-1.22c.07-1.59,1.5-2.64,3.67-2.67a1.27,1.27,0,0,0,1.25-1.29V13A1.28,1.28,0,0,0,57.14,11.65ZM37.53,12.9a1,1,0,0,1,1-1.05H41.9a3.81,3.81,0,0,1,2.79,1A3,3,0,0,1,45.51,15v0a2.91,2.91,0,0,1-1.92,2.91l1.47,1.78a1.26,1.26,0,0,1,.34.81,1,1,0,0,1-1,1,1.28,1.28,0,0,1-1-.55l-2-2.6H39.63v2.09a1.05,1.05,0,1,1-2.1,0Zm4.23,3.59c1,0,1.62-.54,1.62-1.35v0c0-.9-.63-1.36-1.66-1.36H39.63v2.74Zm14.05,2.79a5.62,5.62,0,0,0-4.72,3.78h-20a5.52,5.52,0,0,0-4.66-3.78V14.13a5.68,5.68,0,0,0,4.71-3.84h20a5.63,5.63,0,0,0,4.71,3.84Z"/></g></svg>