<svg xmlns="http://www.w3.org/2000/svg" viewBox="0 0 82.2 82.2"><defs><style>.cls-1{fill:#58595b;}</style></defs><g id="icons"><path class="cls-1" d="M71.33,27.67H65.52V16.23a7.47,7.47,0,0,0-2-5.12L59.71,7.18C56.53,3.9,56.12,3,54.22,2.05A7.4,7.4,0,0,0,51,1.32H23.58a7.41,7.41,0,0,0-7.41,7.41v40H14.6a4.27,4.27,0,0,0-3,7.28,4.25,4.25,0,0,0-1.24,3,4.58,4.58,0,0,0,.08.84A10.79,10.79,0,0,0,4.23,78.48,10.67,10.67,0,0,0,12,81.31H33a4.27,4.27,0,0,0,3-7.28,4.25,4.25,0,0,0,1.23-2.8h1.61v.86A9.88,9.88,0,0,0,48.77,82H71.33a9.88,9.88,0,0,0,9.87-9.87V37.54A9.88,9.88,0,0,0,71.33,27.67ZM61.25,12.46H54.94V5.79ZM14.6,51.22H33a1.74,1.74,0,1,1,0,3.48H14.6a1.74,1.74,0,1,1,0-3.48Zm0,6H33a1.74,1.74,0,1,1,0,3.48H20.3a10.2,10.2,0,0,0-1.6-.58,10.74,10.74,0,0,0-2.54-.37,6.12,6.12,0,0,0-.74,0H13.06a1.67,1.67,0,0,1-.2-.8A1.74,1.74,0,0,1,14.6,57.24ZM34.77,65A1.74,1.74,0,0,1,33,66.74H25.94a10.64,10.64,0,0,0-2.15-3.49H33A1.75,1.75,0,0,1,34.77,65ZM8.44,62.72a11,11,0,0,0-2,2.56H5A8.43,8.43,0,0,1,8.44,62.72ZM3.62,67.66H5.47a11.23,11.23,0,0,0-.35,1.89H3.17A8.68,8.68,0,0,1,3.62,67.66Zm.21,6.27a8.1,8.1,0,0,1-.6-2H5.17a8.53,8.53,0,0,0,.45,2Zm1.58,2.38H6.74a10.71,10.71,0,0,0,1.7,2.06A8.38,8.38,0,0,1,5.41,76.31Zm10.8,2.63a8.4,8.4,0,1,1,5.33-14.59A8.4,8.4,0,0,1,16.21,78.94ZM33,78.77H22.81a10.87,10.87,0,0,0,2.72-3.48H33a1.74,1.74,0,1,1,0,3.48Zm1.73-7.55A1.73,1.73,0,0,1,33,72.75H26.4a10.86,10.86,0,0,0,.16-3.48H33A1.74,1.74,0,0,1,34.76,71.22Zm4.15-2.53H36.62a4.63,4.63,0,0,0-.55-.69,4.27,4.27,0,0,0,0-6,4.27,4.27,0,0,0,0-6,4.28,4.28,0,0,0-3-7.28H18.7v-40a4.89,4.89,0,0,1,4.88-4.88H52.41v9.92A1.27,1.27,0,0,0,53.68,15h9.16c.26,1,.1.69.15,12.63H48.77a9.88,9.88,0,0,0-9.86,9.87V68.69Zm39.92,3.39a7.51,7.51,0,0,1-7.5,7.5H48.77a7.51,7.51,0,0,1-7.49-7.5V37.54a7.5,7.5,0,0,1,7.49-7.49H71.33a7.5,7.5,0,0,1,7.5,7.49V72.08Z"/><path class="cls-1" d="M71.25,32.74H48.86a4,4,0,0,0-4,4v4.34a4,4,0,0,0,4,4h4.31a1.19,1.19,0,0,0,0-2.37H48.86a1.62,1.62,0,0,1-1.61-1.62V36.73a1.61,1.61,0,0,1,1.61-1.61H71.25a1.61,1.61,0,0,1,1.61,1.61v4.34a1.62,1.62,0,0,1-1.61,1.62h-13a1.19,1.19,0,1,0,0,2.37h13a4,4,0,0,0,4-4V36.73A4,4,0,0,0,71.25,32.74Z"/><path class="cls-1" d="M51.42,57.76H47.36a2.5,2.5,0,0,0-2.49,2.49v4.06a2.49,2.49,0,0,0,2.49,2.48h4.06a2.48,2.48,0,0,0,2.48-2.48V60.25A2.49,2.49,0,0,0,51.42,57.76Zm.11,6.55a.11.11,0,0,1-.11.11H47.36a.11.11,0,0,1-.11-.11V60.25a.11.11,0,0,1,.11-.11h4.06a.11.11,0,0,1,.11.11Z"/><path class="cls-1" d="M72.88,47.16H68.82a2.48,2.48,0,0,0-2.48,2.48V53.7a2.48,2.48,0,0,0,2.48,2.48h4.06a2.49,2.49,0,0,0,2.49-2.48V49.64A2.49,2.49,0,0,0,72.88,47.16ZM73,53.7a.11.11,0,0,1-.11.11H68.82a.11.11,0,0,1-.11-.11c.05-4-.1-4.17.11-4.17h4.06a.11.11,0,0,1,.11.11Z"/><path class="cls-1" d="M51.42,47.16H47.36a2.49,2.49,0,0,0-2.49,2.48V53.7a2.49,2.49,0,0,0,2.49,2.48h4.06A2.48,2.48,0,0,0,53.9,53.7V49.64A2.48,2.48,0,0,0,51.42,47.16Zm.11,6.54a.11.11,0,0,1-.11.11H47.36a.11.11,0,0,1-.11-.11V49.64a.11.11,0,0,1,.11-.11h4.06a.11.11,0,0,1,.11.11Z"/><path class="cls-1" d="M53.28,68.69a2.5,2.5,0,0,0-1.86-.84H47.36a2.49,2.49,0,0,0-1.86.84,3.42,3.42,0,0,0-.63,2.53V74.4a2.49,2.49,0,0,0,2.49,2.48h4.06A2.48,2.48,0,0,0,53.9,74.4V71.22A3.46,3.46,0,0,0,53.28,68.69Zm-1.86,5.82c-4-.05-4.17.1-4.17-.11,0-4.3,0-4.17.11-4.17h4.06c.19,0,.07.27.11,1C51.53,71.22,51.63,74.51,51.42,74.51Z"/><path class="cls-1" d="M72.25,57.76h-2.8a3.12,3.12,0,0,0-3.11,3.12v12.6a3.4,3.4,0,0,0,3.4,3.4H72a3.4,3.4,0,0,0,3.4-3.4V60.88A3.12,3.12,0,0,0,72.25,57.76ZM72,74.51H69.74a1,1,0,0,1-1-1V60.88a.74.74,0,0,1,.74-.74h2.8a.74.74,0,0,1,.74.74v12.6h0A1,1,0,0,1,72,74.51Z"/><path class="cls-1" d="M63.81,68.55a2.5,2.5,0,0,0-1.73-.7H58a2.49,2.49,0,0,0-1.86.84,3.42,3.42,0,0,0-.63,2.53V74.4A2.49,2.49,0,0,0,58,76.88h4a2.49,2.49,0,0,0,2.49-2.48V70.34A2.48,2.48,0,0,0,63.81,68.55Zm-1.73,6c-4-.05-4.16.1-4.16-.11V70.34a.11.11,0,0,1,.11-.11h4a.11.11,0,0,1,.11.11C62.15,74.36,62.3,74.51,62.08,74.51Z"/><path class="cls-1" d="M62.08,47.16H58a2.49,2.49,0,0,0-2.49,2.48V53.7A2.49,2.49,0,0,0,58,56.18h4a2.48,2.48,0,0,0,2.49-2.48V49.64A2.49,2.49,0,0,0,62.08,47.16Zm0,6.65H58a.11.11,0,0,1-.11-.11V49.64c0-.21.14-.06,4.16-.11a.11.11,0,0,1,.11.11V53.7h0A.11.11,0,0,1,62.08,53.81Z"/><path class="cls-1" d="M63,57.94a2.31,2.31,0,0,0-.91-.18H58a2.5,2.5,0,0,0-2.49,2.49v4.06A2.49,2.49,0,0,0,58,66.79h4a2.49,2.49,0,0,0,2.49-2.48V60.25A2.49,2.49,0,0,0,63,57.94Zm-.8,6.37a.11.11,0,0,1-.11.11H58a.11.11,0,0,1-.11-.11V60.25a.11.11,0,0,1,.11-.11h4a.11.11,0,0,1,.11.11Z"/><path class="cls-1" d="M55.23,17.54h-3a1.19,1.19,0,1,0,0,2.38h3a1.19,1.19,0,1,0,0-2.38Z"/><path class="cls-1" d="M47.5,17.54H26.44a1.19,1.19,0,0,0,0,2.38H47.5a1.19,1.19,0,0,0,0-2.38Z"/><path class="cls-1" d="M30.21,23.44H26.44a1.19,1.19,0,1,0,0,2.37h3.77a1.19,1.19,0,1,0,0-2.37Z"/><path class="cls-1" d="M55.23,23.44H35a1.19,1.19,0,0,0,0,2.37H55.23a1.19,1.19,0,1,0,0-2.37Z"/><path class="cls-1" d="M25.25,31.48a1.42,1.42,0,0,1,1.43-1.43h4.51A5.17,5.17,0,0,1,35,31.36a4.08,4.08,0,0,1,1.12,3v0a4,4,0,0,1-2.6,4l2,2.42a1.64,1.64,0,0,1,.47,1.09,1.33,1.33,0,0,1-1.36,1.32,1.72,1.72,0,0,1-1.41-.75l-2.78-3.52H28.11v2.84a1.43,1.43,0,1,1-2.86,0ZM31,36.36c1.39,0,2.19-.75,2.19-1.84v0c0-1.22-.85-1.85-2.24-1.85H28.11v3.73Z"/><path class="cls-1" d="M11.49,66.4a1.14,1.14,0,0,1,1.15-1.15h3.63a4.19,4.19,0,0,1,3.05,1.06,3.28,3.28,0,0,1,.9,2.4v0a3.19,3.19,0,0,1-2.09,3.18l1.6,2a1.34,1.34,0,0,1,.37.88A1.07,1.07,0,0,1,19,75.81a1.39,1.39,0,0,1-1.14-.59l-2.24-2.85H13.79v2.29a1.15,1.15,0,0,1-2.3,0Zm4.63,3.94c1.12,0,1.77-.6,1.77-1.48v0c0-1-.69-1.5-1.81-1.5H13.79v3Z"/></g></svg>