<svg xmlns="http://www.w3.org/2000/svg" viewBox="0 0 82.2 82.2"><defs><style>.cls-1{font-size:10.36px;fill:#808285;font-family:BoomerCond-Light, BoomerCond;font-weight:300;}.cls-2{letter-spacing:-0.03em;}.cls-3{letter-spacing:-0.01em;}.cls-4{letter-spacing:-0.09em;}.cls-5{letter-spacing:-0.03em;}.cls-6{letter-spacing:0em;}.cls-7{letter-spacing:-0.01em;}.cls-8{letter-spacing:-0.01em;}.cls-9{letter-spacing:-0.02em;}.cls-10{fill:#58595b;}</style></defs><g id="text"><text class="cls-1" transform="translate(23.31 -79.86)">Ir<tspan class="cls-2" x="5.81" y="0">r</tspan><tspan class="cls-3" x="8.86" y="0">eg</tspan><tspan x="18.75" y="0">u</tspan><tspan class="cls-3" x="24.01" y="0">l</tspan><tspan x="26.04" y="0">a</tspan><tspan class="cls-4" x="31.17" y="0">r</tspan><tspan class="cls-5" x="33.6" y="0">,</tspan><tspan class="cls-6" x="35.42" y="0"> </tspan><tspan x="-19.69" y="12.43">Unauthori</tspan><tspan class="cls-7" x="22.38" y="12.43">s</tspan><tspan x="26.65" y="12.43">ed and </tspan><tspan class="cls-2" x="-25.64" y="24.86">F</tspan><tspan class="cls-3" x="-21.07" y="24.86">r</tspan><tspan x="-17.82" y="24.86">uit</tspan><tspan class="cls-8" x="-6.63" y="24.86">l</tspan><tspan class="cls-9" x="-4.6" y="24.86">e</tspan><tspan x="0.18" y="24.86">ss </tspan><tspan class="cls-2" x="11.05" y="24.86">e</tspan><tspan x="15.73" y="24.86">xpenditu</tspan><tspan class="cls-5" x="53.03" y="24.86">r</tspan><tspan x="56.08" y="24.86">e</tspan></text></g><g id="icons"><path class="cls-10" d="M58,72.89H56.41l1-2.81a1.17,1.17,0,0,0-.69-1.51,1.18,1.18,0,0,0-1.52.69l-.52,1.42-.52-1.42a1.18,1.18,0,0,0-2.21.82l1,2.81H49.86l1-2.81a1.18,1.18,0,0,0-2.21-.82l-.52,1.42-.52-1.42a1.18,1.18,0,0,0-1.52-.69,1.17,1.17,0,0,0-.69,1.51l1,2.81H44.93a1.18,1.18,0,1,0,0,2.36H58a1.18,1.18,0,1,0,0-2.36Z"/><path class="cls-10" d="M26.87,77h-.6l1-2.82a1.17,1.17,0,0,0-.7-1.51,1.19,1.19,0,0,0-1.51.7l-.52,1.41-.52-1.41a1.19,1.19,0,0,0-1.52-.7,1.17,1.17,0,0,0-.69,1.51l1,2.82h-.6a1.18,1.18,0,1,0,0,2.35h4.58a1.18,1.18,0,0,0,0-2.35Z"/><path class="cls-10" d="M34.25,67.87h-2a1.18,1.18,0,1,0,0,2.35h2a1.18,1.18,0,1,0,0-2.35Z"/><path class="cls-10" d="M65.66,76.82h-2a1.18,1.18,0,1,0,0,2.35h2a1.18,1.18,0,0,0,0-2.35Z"/><path class="cls-10" d="M16.19,69.75h-2a1.18,1.18,0,0,0,0,2.36h2a1.18,1.18,0,0,0,0-2.36Z"/><path class="cls-10" d="M69.74,69h-2a1.18,1.18,0,1,0,0,2.35h2a1.18,1.18,0,1,0,0-2.35Z"/><path class="cls-10" d="M17.08,38.38l10.31,1.53a1.66,1.66,0,0,0,1.88-1.39l.63-4.23a1.67,1.67,0,0,0-1.4-1.88L18.2,30.89a1.65,1.65,0,0,0-1.88,1.39l-.63,4.22A1.65,1.65,0,0,0,17.08,38.38Zm1.46-5.06,8.92,1.32L27,37.48l-8.92-1.32Z"/><path class="cls-10" d="M80.18,62.62h-1v-12a2,2,0,0,0-2-2H74.7v-20H77a1.66,1.66,0,0,0,1.15-2.85l-9.63-9.28A1.65,1.65,0,0,0,67.33,16H12.94a1.65,1.65,0,0,0-1.15.47L2.17,25.74a1.66,1.66,0,0,0,1.15,2.85H4.75V56.42H4a1.65,1.65,0,0,0-1.65,1.64v4.56H2.13a1.18,1.18,0,1,0,0,2.36H42.41a1.18,1.18,0,1,0,0-2.36H37.24V49.78h8.51v1.67A1.65,1.65,0,0,0,47.4,53.1h1.85v4a1.66,1.66,0,0,0,1.65,1.66H55a1.66,1.66,0,0,0,1.65-1.66v-4h1.85a1.65,1.65,0,0,0,1.65-1.65V49.78h7.56v3.3H66.6a1.19,1.19,0,0,0-1.17-1,1.17,1.17,0,0,0-1.16,1H61.82a1.46,1.46,0,0,0-1.46,1.46v1.52a1.19,1.19,0,0,0-.87,1.14,1.18,1.18,0,0,0,.87,1.13v1.39a1.19,1.19,0,0,0-.87,1.14A1.18,1.18,0,0,0,60.36,62v.63H47.91a1.18,1.18,0,1,0,0,2.36H80.18a1.18,1.18,0,0,0,0-2.36Zm-12.51,0h-5V62a1.18,1.18,0,0,0,0-2.33V58.36a1.18,1.18,0,0,0,0-2.33v-.6H64.3a1.17,1.17,0,0,0,1.13.86,1.18,1.18,0,0,0,1.14-.86h1.1ZM55.41,18.35l1.34,2.22a1.18,1.18,0,0,0,2-1.21l-.61-1h8.89l8.17,7.88H62.92l-1.28-2.12a1.18,1.18,0,1,0-2,1.22l.54.9H48l-1.49-7.88ZM72.35,28.59v20H70v-20ZM33.73,18.35l-1.48,7.88H20.11l4.75-7.88Zm-20.51,0h8.89l-4.75,7.88H5.05ZM11.76,62.62h-7V58.77h7v3.85Zm15.54,0h-9V43.56h9Zm7.58,0H29.66V42.86A1.67,1.67,0,0,0,28,41.2H17.58a1.66,1.66,0,0,0-1.65,1.66V62.62H14.12V58.06a1.65,1.65,0,0,0-1.65-1.64h-.63V41.7a1.18,1.18,0,0,0-2.36,0V56.42H7.1V28.59H9.48V36.2a1.18,1.18,0,0,0,2.36,0V28.59h23Zm-.24-36.39,1.49-7.88h8l1.49,7.88Zm19.62,30.2H51.6v-5.6h2.66Zm3.5-5.68H56.61v-.62A1.65,1.65,0,0,0,55,48.47H50.9a1.65,1.65,0,0,0-1.65,1.66v.62H48.1V44.57h9.66Zm0-8.53H48.1V38.51h9.66Zm9.91,5.2H60.11V37.81a1.65,1.65,0,0,0-1.65-1.66H47.4a1.65,1.65,0,0,0-1.65,1.66v9.61H37.24V28.59H67.67Zm9.13,15.2H70V60.43H76.8Zm0-4.55H70V55.5H76.8Zm0-4.92H70V51H76.8Z"/></g></svg>