<svg xmlns="http://www.w3.org/2000/svg" viewBox="0 0 82.2 82.2"><defs><style>.cls-1{font-size:10.36px;fill:#808285;font-family:BoomerCond-Light, BoomerCond;font-weight:300;}.cls-2{letter-spacing:-0.01em;}.cls-3{letter-spacing:-0.01em;}.cls-4{letter-spacing:-0.02em;}.cls-5{letter-spacing:-0.03em;}.cls-6{fill:#58595b;}</style></defs><g id="text"><text class="cls-1" transform="translate(-1.66 -79.86)">Hou<tspan class="cls-2" x="17.13" y="0">s</tspan><tspan x="21.4" y="0">eho</tspan><tspan class="cls-3" x="37" y="0">l</tspan><tspan x="39.04" y="0">ds in which </tspan><tspan class="cls-3" x="-7.62" y="12.43">to</tspan><tspan x="1.29" y="12.43">tal in</tspan><tspan class="cls-2" x="21.8" y="12.43">c</tspan><tspan x="26.5" y="12.43">ome is </tspan><tspan class="cls-3" x="55.79" y="12.43">l</tspan><tspan class="cls-4" x="57.82" y="12.43">e</tspan><tspan x="62.6" y="12.43" xml:space="preserve">ss than  </tspan><tspan class="cls-3" x="-3.67" y="24.86">tw</tspan><tspan x="7.25" y="24.86">o </tspan><tspan class="cls-3" x="14.61" y="24.86">s</tspan><tspan x="18.93" y="24.86">ta</tspan><tspan class="cls-3" x="27.85" y="24.86">t</tspan><tspan x="31.53" y="24.86">e pensions (ie </tspan><tspan x="-7.53" y="37.3">eligib</tspan><tspan class="cls-3" x="14.49" y="37.3">l</tspan><tspan x="16.52" y="37.3">e </tspan><tspan class="cls-4" x="23.53" y="37.3">f</tspan><tspan x="26.77" y="37.3">or f</tspan><tspan class="cls-5" x="40.92" y="37.3">r</tspan><tspan x="43.96" y="37.3">ee </tspan><tspan class="cls-2" x="55.96" y="37.3">s</tspan><tspan x="60.23" y="37.3">ervi</tspan><tspan class="cls-2" x="75.26" y="37.3">c</tspan><tspan class="cls-4" x="79.95" y="37.3">es</tspan><tspan x="88.94" y="37.3">)</tspan></text></g><g id="icons"><ellipse class="cls-6" cx="12.16" cy="72.82" rx="1.55" ry="1.57"/><path class="cls-6" d="M71.55,56.45l2.73-8.31a1.59,1.59,0,0,0-.21-1.42,1.54,1.54,0,0,0-1.26-.65H60.43a1.54,1.54,0,0,0-1.25.65A1.63,1.63,0,0,0,59,48.14l2.73,8.31a22.33,22.33,0,0,0-4.35,4.34A22.61,22.61,0,0,0,53,56.45l2.72-8.31a1.59,1.59,0,0,0-.21-1.42,1.54,1.54,0,0,0-1.26-.65H46.13l.27-3.38a4.72,4.72,0,0,0,3.2-4.49V33.48h1.55a1.58,1.58,0,0,0,0-3.15H49.6V27.18h1.55a1.56,1.56,0,0,0,1.55-1.57V22.46a4.69,4.69,0,0,0-4.65-4.72H36.3V13a1.56,1.56,0,0,0-1.55-1.57H19.28A1.56,1.56,0,0,0,17.73,13v4.72H6a4.69,4.69,0,0,0-4.64,4.72v3.15a1.56,1.56,0,0,0,1.55,1.57H4.42v3.15H2.88a1.58,1.58,0,0,0,0,3.15H4.42V38.3a4.62,4.62,0,0,0,3.2,4.41L9.49,65.43a7.89,7.89,0,0,0,2.67,15.26H52.9a15.89,15.89,0,0,0,4.45-.64,17.85,17.85,0,0,0,4.91.64h9c3-.09,9.25-.25,9.25-7.87,0-5.64-3.88-12.59-9-16.37Zm-.89-7.24-2.06,6.3h-4l-2.06-6.3ZM50,55.51h-4L44,49.21H52.1ZM20.82,14.59H33.2v3.15H20.82ZM9,39.77A1.46,1.46,0,0,1,7.52,38.3V27.18h6.19V31.9a1.55,1.55,0,1,0,3.09,0V27.18h3.25a1.57,1.57,0,0,0,0-3.14H4.42V22.46A1.56,1.56,0,0,1,6,20.89H48.05a1.56,1.56,0,0,1,1.55,1.57V24H34a1.57,1.57,0,0,0,0,3.14h3.24V31.9a1.55,1.55,0,1,0,3.1,0V27.18h6.19v11A1.56,1.56,0,0,1,45,39.77a1.56,1.56,0,0,0-1.54,1.44L43,46.07H41.87a1.54,1.54,0,0,0-1.26.65,1.59,1.59,0,0,0-.21,1.42l2.72,8.31c-5.12,3.78-9,10.73-9,16.37a8.44,8.44,0,0,0,1.2,4.72h-17A7.89,7.89,0,0,0,12.55,65L10.61,41.21a1.57,1.57,0,0,0-1.55-1.44Zm-1.45,33a4.64,4.64,0,1,1,4.64,4.72A4.66,4.66,0,0,1,7.52,72.82Zm45.31,4.72h-9.4c-4.81-.13-6.21-1.2-6.21-4.72,0-4.82,3.65-11.07,8.2-14.16h5.27A19.69,19.69,0,0,1,56,64.35a16.72,16.72,0,0,1,2.85,8.47c0,2.8-1,3.63-2.07,4.08l-.11,0a12,12,0,0,1-3.88.59Zm18.41,0s-9.92,0-10.42-.06A8.54,8.54,0,0,0,62,72.82a19.08,19.08,0,0,0-2.8-9.28A19.4,19.4,0,0,1,64,58.66h5.28c4.55,3.09,8.19,9.34,8.19,14.16C77.45,76.34,76.06,77.41,71.24,77.54Z"/><path class="cls-6" d="M34.75,61.8a1.56,1.56,0,0,0,1.55-1.57V41.35a1.55,1.55,0,1,0-3.1,0V60.23A1.56,1.56,0,0,0,34.75,61.8Z"/><path class="cls-6" d="M27,61.8a1.56,1.56,0,0,0,1.55-1.57V41.35a1.55,1.55,0,1,0-3.09,0V60.23A1.55,1.55,0,0,0,27,61.8Z"/><path class="cls-6" d="M19.28,61.8a1.55,1.55,0,0,0,1.54-1.57V41.35a1.55,1.55,0,1,0-3.09,0V60.23A1.56,1.56,0,0,0,19.28,61.8Z"/><ellipse class="cls-6" cx="27.01" cy="25.61" rx="1.55" ry="1.57"/></g></svg>