<svg xmlns="http://www.w3.org/2000/svg" viewBox="0 0 82.2 82.2"><defs><style>.cls-1{font-size:10.36px;fill:#808285;font-family:BoomerCond-Light, BoomerCond;font-weight:300;}.cls-2{letter-spacing:-0.01em;}.cls-3{letter-spacing:-0.01em;}.cls-4{fill:#58595b;}</style></defs><g id="text"><text class="cls-1" transform="translate(11.81 -79.86)">Hou<tspan class="cls-2" x="17.13" y="0">s</tspan><tspan x="21.4" y="0">eho</tspan><tspan class="cls-3" x="37" y="0">l</tspan><tspan x="39.04" y="0">ds in </tspan><tspan x="13.37" y="12.43">p</tspan><tspan class="cls-3" x="18.88" y="12.43">ov</tspan><tspan x="28.56" y="12.43">er</tspan><tspan class="cls-3" x="36.9" y="12.43">t</tspan><tspan x="40.58" y="12.43">y</tspan></text></g><g id="icons"><path class="cls-4" d="M61.74,35.79H25.6a6.54,6.54,0,0,0-6.35,5h-1.7V5.57a3.12,3.12,0,0,0-3.12-3.12H4.11A3.12,3.12,0,0,0,1,5.57V42.35a.34.34,0,0,0,0,.1v0a1,1,0,0,0,0,.17H1L4.2,57.78A53.41,53.41,0,0,1,5.35,68.85v11.8A1.55,1.55,0,0,0,6.91,82.2h46.8a1.55,1.55,0,0,0,1.56-1.55V64a24.62,24.62,0,0,0,13-21.7A6.54,6.54,0,0,0,61.74,35.79ZM25.6,38.9H61.74a3.42,3.42,0,0,1,3.05,1.87H22.55A3.43,3.43,0,0,1,25.6,38.9ZM4.11,40.79V5.57H14.43V40.79Zm39.56,23a1.56,1.56,0,0,0,0,3.11,24.55,24.55,0,0,0,8.48-1.5V79.09H8.47V68.85A57,57,0,0,0,7.25,57.13l-1.67-8H39.8a1.56,1.56,0,1,0,0-3.11H5.38a1.61,1.61,0,0,0-.44.06L4.47,43.9H65.11A21.52,21.52,0,0,1,43.67,63.83Z"/><path class="cls-4" d="M44.89,46.07h0a1.56,1.56,0,1,0,0,3.11h0a1.56,1.56,0,1,0,0-3.11Z"/><path class="cls-4" d="M79.19,2.45A1.56,1.56,0,0,0,77.63,4v9.66H77V11.85a4.68,4.68,0,0,0-4.67-4.67H60.5a4.67,4.67,0,0,0-4.67,4.67v1.82H55.2V10.93a1.56,1.56,0,0,0-3.12,0v4.29a1.56,1.56,0,0,0,1.56,1.56h2.19V29.09a1.55,1.55,0,0,0,1.56,1.55H75.46A1.55,1.55,0,0,0,77,29.09V16.77h2.17a1.55,1.55,0,0,0,1.55-1.56V4A1.55,1.55,0,0,0,79.19,2.45ZM73.9,27.53h-15V24.47a4.73,4.73,0,0,0,1.56.27H72.35a4.67,4.67,0,0,0,1.55-.27Zm0-10.18v2.71a1.56,1.56,0,0,1-1.55,1.56H60.5a1.56,1.56,0,0,1-1.56-1.56V11.85a1.56,1.56,0,0,1,1.56-1.56H72.35a1.56,1.56,0,0,1,1.55,1.56Z"/></g></svg>