<svg xmlns="http://www.w3.org/2000/svg" viewBox="0 0 82.2 82.2"><defs><style>.cls-1{fill:#58595b;}</style></defs><g id="icons"><circle class="cls-1" cx="58.7" cy="23.75" r="1.31"/><path class="cls-1" d="M51.16,35Z"/><path class="cls-1" d="M47.5,31.29Z"/><path class="cls-1" d="M78.37,20.83h-1.6a21.2,21.2,0,0,0-2.46-5.92l1.14-1.14a3.3,3.3,0,0,0,0-4.65L72.84,6.51a3.3,3.3,0,0,0-4.65,0L67.05,7.65a21.2,21.2,0,0,0-5.92-2.46V3.59A3.29,3.29,0,0,0,57.84.3H54.15a3.29,3.29,0,0,0-3.29,3.29v1.6a21.2,21.2,0,0,0-5.92,2.46L43.8,6.51a3.3,3.3,0,0,0-4.65,0L36.54,9.12a3.3,3.3,0,0,0,0,4.65l1.14,1.14a21.2,21.2,0,0,0-2.46,5.92h-1.6a3.29,3.29,0,0,0-3.29,3.29v3.69a3.29,3.29,0,0,0,3.29,3.29h1.6A21.21,21.21,0,0,0,37.66,37l.28.49L16.22,59.2A11.7,11.7,0,0,0,1.32,74.4a1.19,1.19,0,0,0,2,.42l6.1-6.1,3,1.24,1.33,3.12-6.09,6.1a1.19,1.19,0,0,0,.42,1.95,11.7,11.7,0,0,0,15.2-14.9l4-4a1.21,1.21,0,0,0,0-1.69,1.2,1.2,0,0,0-1.68,0L21,65.1a1.18,1.18,0,0,0-.24,1.32,9.32,9.32,0,0,1-10,13L16,74.2a1.19,1.19,0,0,0,.26-1.31l-1.85-4.31a1.18,1.18,0,0,0-.64-.64L9.55,66.22a1.18,1.18,0,0,0-1.3.26L3,71.69a9.32,9.32,0,0,1,13-10,1.18,1.18,0,0,0,1.32-.24L47.5,31.29A1.18,1.18,0,0,0,47.74,30a9.32,9.32,0,0,1,10-13h0l-5.22,5.22,0,0h0l0,0h-.14v0h0v0h0v0h0v0h0v0h0v0h0v0h0v0h0v0h0v0h0v0h0v0h0v0h0v0h0v0h0v0h0v0h0v0h0v0h0v0h0v0h0L54,27.69a1.18,1.18,0,0,0,.62.64l4.3,1.86a1.18,1.18,0,0,0,1.31-.26l5.23-5.22a9.32,9.32,0,0,1-13,10,1.18,1.18,0,0,0-1.32.25L29,57.15a1.2,1.2,0,0,0,0,1.68,1.18,1.18,0,0,0,1.68,0L45.1,44.38a21.58,21.58,0,0,0,5.76,2.36v1.6a3.3,3.3,0,0,0,3.29,3.29h3.69a3.3,3.3,0,0,0,3.29-3.29v-1.6a21.2,21.2,0,0,0,5.92-2.46l1.14,1.14a3.3,3.3,0,0,0,4.65,0l2.61-2.62a3.28,3.28,0,0,0,0-4.64L74.31,37a21.14,21.14,0,0,0,2.46-5.93h1.6a3.29,3.29,0,0,0,3.29-3.28V24.12A3.3,3.3,0,0,0,78.37,20.83ZM61.55,25.25l-2.4,2.41L56,26.22l-1.25-2.9,3-3,3.35,1,1,3.36Zm17.73,2.56a.91.91,0,0,1-.91.91H76.16A1.63,1.63,0,0,0,74.58,30,19,19,0,0,1,72,36.25a1.62,1.62,0,0,0,.21,2l1.56,1.56a.89.89,0,0,1,0,1.28l-2.61,2.61a.89.89,0,0,1-1.28,0l-1.56-1.56a1.62,1.62,0,0,0-2-.21A19,19,0,0,1,60,44.55a1.63,1.63,0,0,0-1.28,1.58v2.21a.91.91,0,0,1-.91.91H54.15a.91.91,0,0,1-.91-.91V46.13A1.63,1.63,0,0,0,52,44.55a18.86,18.86,0,0,1-5.12-1.92l2.26-2.25A16,16,0,0,0,71.67,29a1.19,1.19,0,0,0-.94-1.4,1.21,1.21,0,0,0-1.4.94,13.58,13.58,0,0,1-18.42,10l1.38-1.38A11.7,11.7,0,0,0,67.19,22a1.19,1.19,0,0,0-2-.42L64,22.77,63.21,20a1.15,1.15,0,0,0-.8-.8l-2.73-.82,1.2-1.2a1.2,1.2,0,0,0-.42-2,11.7,11.7,0,0,0-15.2,14.9l-1.57,1.58A13.59,13.59,0,1,1,69.47,24.2a1.19,1.19,0,0,0,1.34,1,1.18,1.18,0,0,0,1-1.33,16,16,0,1,0-29.92,9.61l-2.23,2.23A18.86,18.86,0,0,1,37.41,30a1.63,1.63,0,0,0-1.58-1.28H33.62a.91.91,0,0,1-.91-.91V24.12a.91.91,0,0,1,.91-.91h2.21a1.63,1.63,0,0,0,1.58-1.28A18.74,18.74,0,0,1,40,15.68a1.65,1.65,0,0,0-.21-2l-1.57-1.56a.91.91,0,0,1,0-1.28l2.62-2.62a.91.91,0,0,1,1.28,0l1.56,1.57a1.65,1.65,0,0,0,2,.21A18.74,18.74,0,0,1,52,7.38,1.63,1.63,0,0,0,53.24,5.8V3.59a.91.91,0,0,1,.91-.91h3.69a.91.91,0,0,1,.91.91V5.8A1.63,1.63,0,0,0,60,7.38,18.74,18.74,0,0,1,66.28,10a1.65,1.65,0,0,0,2-.21l1.56-1.57a.91.91,0,0,1,1.28,0l2.61,2.61a.91.91,0,0,1,0,1.29L72.2,13.65a1.63,1.63,0,0,0-.21,2,19,19,0,0,1,2.59,6.25,1.63,1.63,0,0,0,1.58,1.28h2.21a.91.91,0,0,1,.91.91v3.69Z"/><path class="cls-1" d="M24.75,23.86h-.67a8.92,8.92,0,0,0-.44-1.07l.47-.47a1.77,1.77,0,0,0,0-2.52L22,17.72a1.8,1.8,0,0,0-2.53,0l-.47.47c-.35-.16-.71-.31-1.07-.44v-.67a1.79,1.79,0,0,0-1.79-1.78H13.25a1.79,1.79,0,0,0-1.79,1.78v.67a10.94,10.94,0,0,0-1.07.44l-.47-.47a1.79,1.79,0,0,0-2.52,0L5.32,19.8a1.79,1.79,0,0,0,0,2.52l.47.47a10.94,10.94,0,0,0-.44,1.07H4.68A1.79,1.79,0,0,0,2.9,25.65v2.93a1.79,1.79,0,0,0,1.78,1.79h.67a10,10,0,0,0,.44,1.07l-.47.47a1.8,1.8,0,0,0,0,2.53L7.4,36.51a1.79,1.79,0,0,0,2.52,0l.47-.47a8.92,8.92,0,0,0,1.07.44v.67a1.79,1.79,0,0,0,1.79,1.78h2.93A1.79,1.79,0,0,0,18,37.15v-.67A8.92,8.92,0,0,0,19,36l.47.47a1.8,1.8,0,0,0,2.53,0l2.07-2.07a1.79,1.79,0,0,0,0-2.53l-.47-.47a8.3,8.3,0,0,0,.44-1.07h.67a1.79,1.79,0,0,0,1.78-1.79V25.65A1.79,1.79,0,0,0,24.75,23.86ZM24.15,28h-1A1.19,1.19,0,0,0,22,28.9,7.4,7.4,0,0,1,21.15,31a1.19,1.19,0,0,0,.18,1.46l.68.68-1.24,1.24-.68-.68a1.19,1.19,0,0,0-1.46-.18,7.52,7.52,0,0,1-2.13.89,1.18,1.18,0,0,0-.91,1.15v1H13.84v-1a1.18,1.18,0,0,0-.91-1.15,7.52,7.52,0,0,1-2.13-.89,1.2,1.2,0,0,0-1.46.18l-.68.68L7.43,33.17l.67-.68A1.19,1.19,0,0,0,8.28,31,7.38,7.38,0,0,1,7.4,28.9,1.2,1.2,0,0,0,6.24,28h-1V26.24h1a1.19,1.19,0,0,0,1.16-.91,7.49,7.49,0,0,1,.88-2.13,1.2,1.2,0,0,0-.18-1.46l-.67-.68,1.23-1.23.68.68a1.19,1.19,0,0,0,1.46.17,7.49,7.49,0,0,1,2.13-.88,1.19,1.19,0,0,0,.91-1.16v-1h1.75v1a1.19,1.19,0,0,0,.91,1.16,7.49,7.49,0,0,1,2.13.88,1.19,1.19,0,0,0,1.46-.17l.68-.68L22,21.06l-.68.68a1.2,1.2,0,0,0-.18,1.46A7.52,7.52,0,0,1,22,25.33a1.18,1.18,0,0,0,1.15.91h1V28Z"/><path class="cls-1" d="M14.72,21.33a5.79,5.79,0,1,0,5.79,5.79A5.79,5.79,0,0,0,14.72,21.33Zm0,9.2a3.41,3.41,0,1,1,3.41-3.41A3.41,3.41,0,0,1,14.72,30.53Z"/><path class="cls-1" d="M66.31,63.21h-.67a8.43,8.43,0,0,0-.44-1.08l.47-.47a1.77,1.77,0,0,0,0-2.52L63.6,57.06a1.8,1.8,0,0,0-2.53,0l-.47.47c-.35-.16-.71-.31-1.07-.44v-.67a1.79,1.79,0,0,0-1.79-1.78H54.81A1.79,1.79,0,0,0,53,56.42v.67c-.36.13-.72.28-1.07.44l-.47-.47a1.79,1.79,0,0,0-2.52,0l-2.08,2.08a1.79,1.79,0,0,0,0,2.52l.47.47c-.16.35-.31.71-.44,1.08h-.67A1.78,1.78,0,0,0,44.46,65v2.93a1.79,1.79,0,0,0,1.78,1.79h.67a10,10,0,0,0,.44,1.07l-.47.47a1.8,1.8,0,0,0,0,2.53L49,75.85a1.79,1.79,0,0,0,2.52,0l.47-.47a8.92,8.92,0,0,0,1.07.44v.67a1.8,1.8,0,0,0,1.79,1.79h2.93a1.79,1.79,0,0,0,1.79-1.79v-.67a8.92,8.92,0,0,0,1.07-.44l.47.47a1.8,1.8,0,0,0,2.53,0l2.07-2.07a1.79,1.79,0,0,0,0-2.53l-.47-.47a8.3,8.3,0,0,0,.44-1.07h.67a1.79,1.79,0,0,0,1.78-1.79V65A1.78,1.78,0,0,0,66.31,63.21Zm-.59,4.12h-1a1.2,1.2,0,0,0-1.15.91,7.4,7.4,0,0,1-.89,2.13,1.19,1.19,0,0,0,.18,1.46l.68.68-1.24,1.24-.67-.68a1.21,1.21,0,0,0-1.47-.18,7.4,7.4,0,0,1-2.13.89,1.19,1.19,0,0,0-.91,1.15v1H55.4v-1a1.18,1.18,0,0,0-.9-1.15,7.46,7.46,0,0,1-2.14-.89,1.2,1.2,0,0,0-1.46.18l-.68.68L49,72.51l.68-.68a1.19,1.19,0,0,0,.17-1.46A7.38,7.38,0,0,1,49,68.24a1.2,1.2,0,0,0-1.16-.91h-1V65.58h1a1.19,1.19,0,0,0,1.16-.9,7.44,7.44,0,0,1,.88-2.14,1.19,1.19,0,0,0-.17-1.46L49,60.4l1.23-1.23.68.68a1.19,1.19,0,0,0,1.46.17,7.44,7.44,0,0,1,2.14-.88A1.19,1.19,0,0,0,55.4,58V57h1.75v1a1.2,1.2,0,0,0,.91,1.16,7.38,7.38,0,0,1,2.13.88,1.21,1.21,0,0,0,1.47-.17l.67-.68,1.24,1.23-.68.68a1.2,1.2,0,0,0-.18,1.46,7.46,7.46,0,0,1,.89,2.14,1.19,1.19,0,0,0,1.15.9h1Z"/><path class="cls-1" d="M56.28,60.67a5.79,5.79,0,1,0,5.79,5.79A5.79,5.79,0,0,0,56.28,60.67Zm0,9.2a3.41,3.41,0,1,1,3.41-3.41A3.41,3.41,0,0,1,56.28,69.87Z"/></g></svg>