<svg xmlns="http://www.w3.org/2000/svg" viewBox="0 0 82.2 82.2"><defs><style>.cls-1{fill:#58595b;}</style></defs><g id="icons"><path class="cls-1" d="M82.11,31.75A1.61,1.61,0,0,0,81.9,31L73.24,15.57a1.58,1.58,0,0,0-1.39-.82H62.54a4.91,4.91,0,0,0-.62-.76L49.34,1.41a4.82,4.82,0,0,0-6.81,0L29.16,14.78a1.43,1.43,0,0,0-.29,0H10.26a1.58,1.58,0,0,0-1.39.82L.21,31a1.61,1.61,0,0,0-.21.79H0V80.5a1.61,1.61,0,0,0,1.6,1.61H80.51a1.61,1.61,0,0,0,1.6-1.61V31.75ZM44.8,3.67a1.62,1.62,0,0,1,2.27,0L59.66,16.26a1.63,1.63,0,0,1,.47,1.14,1.61,1.61,0,0,1-.47,1.13l-3.92,3.92H26ZM11.2,18H26l-4.49,4.49H17.57a1.61,1.61,0,1,0,0,3.21H66.15a1.61,1.61,0,0,0,0-3.21H60.27l1.65-1.65A4.75,4.75,0,0,0,63.3,18h7.61l6.85,12.19H4.35ZM78.9,78.9H3.21V33.35H78.9Z"/><path class="cls-1" d="M11.87,71.84H70.24a1.6,1.6,0,0,0,1.61-1.6V42a1.61,1.61,0,0,0-1.61-1.6h-37a1.61,1.61,0,0,0,0,3.21H68.64v25H13.47v-25h6.9a1.61,1.61,0,1,0,0-3.21h-8.5A1.61,1.61,0,0,0,10.26,42V70.24A1.6,1.6,0,0,0,11.87,71.84Z"/><path class="cls-1" d="M26.79,43.62a1.59,1.59,0,0,0,1.13-.47,1.61,1.61,0,0,0,0-2.27,1.59,1.59,0,0,0-2.26,0,1.61,1.61,0,0,0,0,2.27A1.59,1.59,0,0,0,26.79,43.62Z"/><path class="cls-1" d="M18.18,48.84a1.6,1.6,0,0,0-1,2l4,11.55a1.62,1.62,0,0,0,1.52,1.07,1.6,1.6,0,0,0,1.51-1.07l4-11.55a1.6,1.6,0,1,0-3-1.06l-2.53,7.23-2.53-7.23A1.61,1.61,0,0,0,18.18,48.84Z"/><path class="cls-1" d="M35.76,63.5a5.65,5.65,0,0,0,5.65-5.64V54.4a5.65,5.65,0,1,0-11.29,0v3.46A5.65,5.65,0,0,0,35.76,63.5Zm-2.44-9.1a2.44,2.44,0,0,1,4.88,0v3.46a2.44,2.44,0,1,1-4.88,0Z"/><path class="cls-1" d="M59.4,52h3.68a1.61,1.61,0,1,0,0-3.21H59.4a3.58,3.58,0,0,0-3.58,3.58v7.6A3.57,3.57,0,0,0,59.4,63.5h3.68a1.6,1.6,0,1,0,0-3.2H59.4a.38.38,0,0,1-.38-.37v-2.2h2.44a1.61,1.61,0,1,0,0-3.21H59V52.33A.37.37,0,0,1,59.4,52Z"/><path class="cls-1" d="M48.58,63.5a1.6,1.6,0,0,0,1.61-1.6V52h2.1a1.61,1.61,0,0,0,0-3.21H44.88a1.61,1.61,0,0,0,0,3.21H47V61.9A1.6,1.6,0,0,0,48.58,63.5Z"/><path class="cls-1" d="M49.43,10.59a1.59,1.59,0,0,0-2.25.25l-4.06,5.1-2.61-2.07a1.6,1.6,0,1,0-2,2.51l3.85,3.07a1.62,1.62,0,0,0,2.26-.25l5.06-6.36A1.6,1.6,0,0,0,49.43,10.59Z"/></g></svg>