<svg xmlns="http://www.w3.org/2000/svg" viewBox="0 0 82.2 82.2"><defs><style>.cls-1{font-size:10.36px;fill:#808285;font-family:BoomerCond-Light, BoomerCond;font-weight:300;}.cls-2{letter-spacing:-0.02em;}.cls-3{letter-spacing:-0.01em;}.cls-4{letter-spacing:-0.03em;}.cls-5{letter-spacing:-0.01em;}.cls-6{fill:#58595b;}</style></defs><g id="text"><text class="cls-1" transform="translate(15.11 -79.86)"><tspan class="cls-2">S</tspan><tspan x="5.33" y="0">pending on </tspan><tspan class="cls-2" x="1.57" y="12.43">R</tspan><tspan x="7.16" y="12.43">e</tspan><tspan class="cls-3" x="12.15" y="12.43">p</tspan><tspan x="17.55" y="12.43">ai</tspan><tspan class="cls-4" x="24.82" y="12.43">r</tspan><tspan x="27.86" y="12.43">s and </tspan><tspan x="-1.29" y="24.86">Main</tspan><tspan class="cls-3" x="19.05" y="24.86">t</tspan><tspan x="22.73" y="24.86">enan</tspan><tspan class="cls-5" x="43.43" y="24.86">c</tspan><tspan x="48.13" y="24.86">e</tspan></text></g><g id="icons"><path class="cls-6" d="M18.49,35.34H31.25a2.56,2.56,0,0,0,2.55-2.56h6.38a1.29,1.29,0,0,1,1.28,1.28v1.28a2.56,2.56,0,0,0-2.56,2.55v2.55A2.56,2.56,0,0,0,41.46,43H54.21a2.55,2.55,0,0,0,2.55-2.55V37.89a2.55,2.55,0,0,0-2.55-2.55V34.06A14,14,0,0,0,49.28,23.4C53,15.8,59.46,8.1,61.87,5.36c3.45,3.93,15.3,18.11,15.3,27.42a15.31,15.31,0,0,1-20,14.57l-.79,2.43a17.87,17.87,0,0,0,23.35-17c0-11.84-16.23-29.46-16.92-30.2l-.93-1-.94,1c-.38.4-9,9.72-13.76,19.33a13.92,13.92,0,0,0-7-1.88H33.8a2.55,2.55,0,0,0-2.55-2.55V14.93a2.56,2.56,0,0,0-2.55-2.56V9.82h5.1a2.55,2.55,0,0,0,2.55-2.55V4.72A2.55,2.55,0,0,0,33.8,2.17H15.94a2.55,2.55,0,0,0-2.55,2.55V7.27a2.55,2.55,0,0,0,2.55,2.55H21v2.55a2.56,2.56,0,0,0-2.55,2.56v2.55A2.55,2.55,0,0,0,15.94,20H.63V32.78H15.94a2.56,2.56,0,0,0,2.55,2.56Zm35.72,5.1H41.46V37.89H54.21ZM33.8,22.58h6.38A11.49,11.49,0,0,1,51.66,34.06v1.28H44V34.06a3.84,3.84,0,0,0-3.83-3.83H33.8ZM28.46,4.72H33.8V7.27H28.46A3.58,3.58,0,0,0,28.7,6a3.64,3.64,0,0,0-.24-1.28Zm-3.59,0A1.28,1.28,0,1,1,23.6,6,1.28,1.28,0,0,1,24.87,4.72ZM23.6,9.82h2.55v2.55H23.6ZM15.94,7.27V4.72h5.34A3.87,3.87,0,0,0,21.05,6a3.81,3.81,0,0,0,.23,1.27Zm5.11,7.66H28.7v2.55H21.05ZM18.49,20H31.25V32.78H18.49ZM3.19,22.58H15.94v7.65H3.19Z"/><path class="cls-6" d="M5.74,25.13h7.65v2.55H5.74Z"/><path class="cls-6" d="M41.46,45.54H44v5.1H41.46Z"/><path class="cls-6" d="M73.37,27.22,71,28.14a18.14,18.14,0,0,1,.76,2.4l2.48-.61a20,20,0,0,0-.87-2.71Z"/><path class="cls-6" d="M61.87,43v2.55A12.77,12.77,0,0,0,74.62,32.78H72.07A10.22,10.22,0,0,1,61.87,43Z"/><path class="cls-6" d="M68.42,55.75c-3.32,0-5,1.53-6.51,2.88s-2.46,2.22-4.79,2.22a5.48,5.48,0,0,1-2.91-.74V45.54H51.66V58a9.86,9.86,0,0,0-2.55-1.66V45.54H46.56V55.79c-.24,0-.48,0-.74,0-3.32,0-5,1.53-6.51,2.88s-2.46,2.22-4.79,2.22-3.42-1-4.8-2.22-3.18-2.88-6.5-2.88-5,1.53-6.5,2.88-2.46,2.22-4.79,2.22-3.42-1-4.79-2.22a9.19,9.19,0,0,0-5.09-2.78A1.22,1.22,0,0,0,.63,57v.14a1.24,1.24,0,0,0,1.07,1.2,6.87,6.87,0,0,1,3.73,2.14c1.49,1.35,3.18,2.88,6.5,2.88s5-1.53,6.5-2.88,2.46-2.22,4.79-2.22,3.42,1,4.79,2.22a8.94,8.94,0,0,0,6,2.85,3.55,3.55,0,0,0,.18,2.95,3.92,3.92,0,0,0,3.12,2.17,3.82,3.82,0,0,0,2.49-6.94c.42-.34.82-.69,1.19-1,1.38-1.24,2.46-2.22,4.8-2.22a5.9,5.9,0,0,1,.74,0v3.78a1.27,1.27,0,0,0,1.27,1.28h0a1.28,1.28,0,0,0,1.28-1.28V59.27a16.55,16.55,0,0,1,1.5,1.25c.34.3.68.61,1,.91v8.35a1.27,1.27,0,0,0,1.28,1.27h0a1.27,1.27,0,0,0,1.27-1.27V62.92a8.55,8.55,0,0,0,2.91.48h.19a6.34,6.34,0,0,0-.39,4,6.38,6.38,0,1,0,7.6-7.64,5.61,5.61,0,0,1,3.9-1.43c2.34,0,3.42,1,4.8,2.22A9.28,9.28,0,0,0,78.3,63.3a1.22,1.22,0,0,0,1.42-1.19V62a1.23,1.23,0,0,0-1.07-1.2,6.9,6.9,0,0,1-3.72-2.14C73.43,57.28,71.74,55.75,68.42,55.75ZM37.63,66a1.28,1.28,0,1,1,1.27-1.27A1.28,1.28,0,0,1,37.63,66Zm29.2-1a3.84,3.84,0,0,1-4.73,4.73A3.77,3.77,0,0,1,59.45,67a3.84,3.84,0,0,1,4.73-4.73A3.77,3.77,0,0,1,66.83,64.91Z"/><path class="cls-6" d="M47.83,73.61a3.83,3.83,0,1,0,3.83,3.82A3.82,3.82,0,0,0,47.83,73.61Zm0,5.1a1.28,1.28,0,1,1,1.28-1.28A1.27,1.27,0,0,1,47.83,78.71Z"/></g></svg>