<?xml version="1.0" encoding="UTF-8"?>
<svg width="92px" height="82px" viewBox="0 0 92 82" version="1.1" xmlns="http://www.w3.org/2000/svg" xmlns:xlink="http://www.w3.org/1999/xlink">
    <title>sort</title>
    <g id="Page-1" stroke="none" stroke-width="1" fill="none" fill-rule="evenodd">
        <g id="sort" fill="#000000" fill-rule="nonzero">
            <path d="M37.04,66.03 L23.64,79.42 C23.37,79.69 23.07,79.94 22.76,80.15 C22.71,80.18 22.66,80.21 22.61,80.24 C22.47,80.33 22.33,80.42 22.19,80.49 C22.02,80.58 21.84,80.66 21.67,80.74 C21.65,80.74 21.63,80.75 21.61,80.76 C21.44,80.82 21.27,80.88 21.11,80.93 C20.92,80.99 20.73,81.03 20.54,81.07 C20.17,81.14 19.78,81.18 19.4,81.18 C18.82,81.18 18.25,81.1 17.69,80.93 C17.52,80.88 17.35,80.82 17.19,80.76 C17.17,80.75 17.15,80.74 17.13,80.74 C16.95,80.66 16.78,80.58 16.61,80.49 C16.47,80.42 16.33,80.34 16.19,80.24 C15.83,80.02 15.48,79.75 15.16,79.42 L15.15,79.42 L1.76,66.03 C-0.59,63.68 -0.59,59.88 1.76,57.54 C4.1,55.2 7.9,55.2 10.24,57.54 L13.4,60.7 L13.4,6.82 C13.4,3.51 16.08,0.82 19.4,0.82 C22.71,0.82 25.4,3.51 25.4,6.82 L25.4,60.69 L28.55,57.54 C30.9,55.2 34.69,55.2 37.04,57.54 C39.38,59.88 39.38,63.68 37.04,66.03 Z" id="Path"></path>
            <path d="M86,12.82 L50.229,12.82 C46.916,12.82 44.229,10.133 44.229,6.82 C44.229,3.507 46.916,0.82 50.229,0.82 L86,0.82 C89.313,0.82 92,3.507 92,6.82 C92,10.133 89.313,12.82 86,12.82 Z" id="Path"></path>
            <path d="M78.846,35.368 L50.229,35.368 C46.916,35.368 44.229,32.681 44.229,29.368 C44.229,26.055 46.916,23.368 50.229,23.368 L78.846,23.368 C82.159,23.368 84.846,26.055 84.846,29.368 C84.846,32.681 82.159,35.368 78.846,35.368 Z" id="Path"></path>
            <path d="M71.691,57.915 L50.229,57.915 C46.916,57.915 44.229,55.228 44.229,51.915 C44.229,48.602 46.916,45.915 50.229,45.915 L71.692,45.915 C75.005,45.915 77.692,48.602 77.692,51.915 C77.692,55.228 75.005,57.915 71.691,57.915 Z" id="Path"></path>
            <path d="M64.537,80.463 L50.229,80.463 C46.916,80.463 44.229,77.776 44.229,74.463 C44.229,71.15 46.916,68.463 50.229,68.463 L64.538,68.463 C67.851,68.463 70.538,71.15 70.538,74.463 C70.538,77.776 67.851,80.463 64.537,80.463 Z" id="Path"></path>
        </g>
    </g>
</svg>